<svg width="60" height="60" viewBox="0 0 15.875 15.875" xmlns="http://www.w3.org/2000/svg"><path style="fill:#fff;fill-opacity:0;stroke:#000;stroke-width:0;paint-order:stroke fill markers;stop-color:#000" fill="none" d="M1.897 1.439h24.924v22.7H1.897z" transform="translate(-28.896 -28.899)"/><path style="fill:#003453;fill-opacity:1;stroke:ivory;stroke-width:0;stroke-miterlimit:4;stroke-dasharray:none;stroke-opacity:1;paint-order:stroke fill markers;stop-color:#000" d="M56.939 33.62a1.327 1.327 0 0 1-1.135-1.05l-.02-.096V25.7c0-6.495 0-6.778.016-6.858a1.338 1.338 0 0 1 1.032-1.055l.093-.022 3.694-.002 3.693-.003v4.3c0 2.365-.001 4.3-.003 4.3s-.348-.628-.77-1.395l-.766-1.394h-.8V33.63l-2.487-.001c-1.367 0-2.514-.005-2.547-.01zm2.582-7.508v-1.708h1.329v-.833h-3.752v.833h1.329v3.415h1.094z" transform="translate(-28.896 -28.899)"/><path style="fill:#003453;fill-opacity:1;stroke:ivory;stroke-width:0;stroke-miterlimit:4;stroke-dasharray:none;stroke-opacity:1;paint-order:stroke fill markers;stop-color:#000" d="M57.229 33.616c-.35-.006-.363-.007-.45-.03a1.32 1.32 0 0 1-.633-.377 1.327 1.327 0 0 1-.34-.652l-.019-.082.003-6.8.003-6.801.02-.075c.075-.278.179-.463.363-.646.18-.178.362-.282.631-.358l.09-.025 3.709-.003 3.71-.002-.008 4.278c-.003 2.353-.008 4.28-.01 4.282-.003.003-.052-.085-.657-1.187l-.677-1.23-.186-.337-.402-.002-.403-.003v10.06l-2.192-.002a382.5 382.5 0 0 1-2.552-.008zm2.292-7.5V24.41h1.329v-.843h-3.752v.842h1.329v3.416h1.094z" transform="translate(-28.896 -28.899)"/><path style="fill:#003453;fill-opacity:1;stroke:none;stroke-width:0;stroke-miterlimit:4;stroke-dasharray:none;stroke-opacity:1;paint-order:stroke fill markers;stop-color:#000" d="M62.768 29.333v-4.302l.096.174.77 1.401.674 1.227h.8V17.765l2.71.003c2.554.002 2.716.003 2.78.019.123.03.211.062.325.119.392.195.666.587.716 1.024.007.069.01 1.897.007 6.826l-.003 6.732-.02.085a1.29 1.29 0 0 1-.347.65 1.334 1.334 0 0 1-.727.39c-.07.015-.383.016-3.928.02l-3.853.002zm5.839-1.541a2.203 2.203 0 0 0 1.03-.472c.094-.078.28-.269.28-.286 0-.012-.662-.676-.667-.67a1.372 1.372 0 0 1-.316.314 1.159 1.159 0 0 1-.71.198 1.142 1.142 0 0 1-.697-.262 1.188 1.188 0 0 1-.398-.612l-.011-.05h-.944v.028a2.074 2.074 0 0 0 .624 1.236 2.12 2.12 0 0 0 1.234.588c.112.014.469.006.575-.012zm-1.466-2.44c.114-.374.407-.67.783-.788a1.22 1.22 0 0 1 .766.022c.225.087.395.22.56.44.005.006.667-.658.667-.67 0-.017-.186-.208-.28-.285a2.174 2.174 0 0 0-.936-.452 2.166 2.166 0 0 0-.989.031 2.126 2.126 0 0 0-1.53 1.701l-.014.087h.947z" transform="translate(-28.896 -28.899)"/><path d="M60.842 24.398H59.52v3.415h-1.092v-3.415h-1.322v-.82h3.736z" style="font-weight:700;font-size:11.6452px;line-height:1.25;-inkscape-font-specification:'sans-serif, Bold';fill:#fff;stroke-width:0" transform="translate(-28.896 -28.899)"/><path style="fill:#fff;fill-opacity:1;stroke:none;stroke-width:0;stroke-miterlimit:4;stroke-dasharray:none;stroke-opacity:1;paint-order:stroke fill markers;stop-color:#000" d="M68.276 23.586a2.117 2.117 0 0 0-2.1 1.852h.94a1.19 1.19 0 0 1 .022-.086 1.19 1.19 0 0 1 .03-.084 1.19 1.19 0 0 1 .035-.082 1.19 1.19 0 0 1 .042-.079 1.19 1.19 0 0 1 .047-.075 1.19 1.19 0 0 1 .053-.072 1.19 1.19 0 0 1 .058-.067 1.19 1.19 0 0 1 .063-.063 1.19 1.19 0 0 1 .068-.058 1.19 1.19 0 0 1 .071-.053 1.19 1.19 0 0 1 .076-.048 1.19 1.19 0 0 1 .078-.041 1.19 1.19 0 0 1 .082-.036 1.19 1.19 0 0 1 .084-.03 1.19 1.19 0 0 1 .086-.022 1.19 1.19 0 0 1 .088-.017 1.19 1.19 0 0 1 .088-.01 1.19 1.19 0 0 1 .09-.003 1.19 1.19 0 0 1 .03 0 1.19 1.19 0 0 1 .03.002 1.19 1.19 0 0 1 .031.002 1.19 1.19 0 0 1 .03.002 1.19 1.19 0 0 1 .031.004 1.19 1.19 0 0 1 .03.004 1.19 1.19 0 0 1 .03.005 1.19 1.19 0 0 1 .03.006 1.19 1.19 0 0 1 .03.007 1.19 1.19 0 0 1 .03.007 1.19 1.19 0 0 1 .03.009 1.19 1.19 0 0 1 .03.008 1.19 1.19 0 0 1 .029.01 1.19 1.19 0 0 1 .028.01 1.19 1.19 0 0 1 .029.012 1.19 1.19 0 0 1 .028.012 1.19 1.19 0 0 1 .028.013 1.19 1.19 0 0 1 .028.013 1.19 1.19 0 0 1 .027.014 1.19 1.19 0 0 1 .027.015 1.19 1.19 0 0 1 .026.015 1.19 1.19 0 0 1 .026.016 1.19 1.19 0 0 1 .026.017 1.19 1.19 0 0 1 .025.017 1.19 1.19 0 0 1 .025.018 1.19 1.19 0 0 1 .024.02 1.19 1.19 0 0 1 .024.019 1.19 1.19 0 0 1 .023.02 1.19 1.19 0 0 1 .023.02 1.19 1.19 0 0 1 .022.021 1.19 1.19 0 0 1 .022.022 1.19 1.19 0 0 1 .007.007l.53-.772a2.117 2.117 0 0 0-1.39-.521zm1.187 2.024H68.35v.794h.888a1.19 1.19 0 0 1-.03.041 1.19 1.19 0 0 1-.059.068 1.19 1.19 0 0 1-.063.063 1.19 1.19 0 0 1-.067.058 1.19 1.19 0 0 1-.072.053 1.19 1.19 0 0 1-.075.047 1.19 1.19 0 0 1-.08.042 1.19 1.19 0 0 1-.08.035 1.19 1.19 0 0 1-.085.03 1.19 1.19 0 0 1-.086.023 1.19 1.19 0 0 1-.087.016 1.19 1.19 0 0 1-.089.01 1.19 1.19 0 0 1-.089.004 1.19 1.19 0 0 1-.089-.004 1.19 1.19 0 0 1-.088-.01 1.19 1.19 0 0 1-.088-.016 1.19 1.19 0 0 1-.086-.023 1.19 1.19 0 0 1-.084-.03 1.19 1.19 0 0 1-.082-.035 1.19 1.19 0 0 1-.078-.042 1.19 1.19 0 0 1-.076-.047 1.19 1.19 0 0 1-.071-.053 1.19 1.19 0 0 1-.068-.058 1.19 1.19 0 0 1-.063-.063 1.19 1.19 0 0 1-.058-.068 1.19 1.19 0 0 1-.053-.071 1.19 1.19 0 0 1-.047-.076 1.19 1.19 0 0 1-.042-.079 1.19 1.19 0 0 1-.035-.081 1.19 1.19 0 0 1-.03-.084 1.19 1.19 0 0 1-.023-.086h-.939a2.117 2.117 0 0 0 2.1 1.852 2.117 2.117 0 0 0 2.117-2.117 2.117 2.117 0 0 0-.002-.093z" transform="translate(-28.896 -28.899)"/><path style="fill:#7ba03b;fill-opacity:1;stroke:none;stroke-width:0;stroke-miterlimit:4;stroke-dasharray:none;stroke-opacity:1;paint-order:stroke fill markers;stop-color:#000" d="M57.229 33.616c-.351-.006-.363-.006-.45-.03a1.322 1.322 0 0 1-.633-.377 1.327 1.327 0 0 1-.34-.652l-.019-.082.003-6.805.003-6.806.03-.105c.143-.493.479-.823.984-.964l.09-.025 3.707-.003 3.708-.002-.001 2.393c-.001 1.316-.004 3.244-.007 4.283l-.006 1.89-.178-.322-.762-1.383-.582-1.06h-.803v10.06l-2.192-.003a396.188 396.188 0 0 1-2.552-.007zm2.292-7.5V24.41h1.329v-.843h-3.752v.842h1.329v3.416h1.094z" transform="translate(-28.896 -28.899)"/><path style="fill:#7ba03b;fill-opacity:1;stroke:ivory;stroke-width:0;stroke-miterlimit:4;stroke-dasharray:none;stroke-opacity:1;paint-order:stroke fill markers;stop-color:#000" d="M59.558 53.146a1.327 1.327 0 0 1-1.134-1.05l-.022-.095v-6.775c0-6.494.001-6.778.017-6.857a1.338 1.338 0 0 1 1.032-1.056l.093-.021 3.694-.003 3.694-.003v4.3c0 2.365-.002 4.3-.004 4.3s-.348-.628-.77-1.394l-.765-1.395h-.8v10.06l-2.487-.002c-1.368 0-2.514-.005-2.548-.009zm2.583-7.508V43.93h1.328v-.833h-3.752v.833h1.329v3.416h1.094z" transform="translate(-58.397 -37.286)"/><path style="fill:#003453;fill-opacity:1;stroke:none;stroke-width:0;stroke-miterlimit:4;stroke-dasharray:none;stroke-opacity:1;paint-order:stroke fill markers;stop-color:#000" d="M67.727 37.291V47.36h-.8l-.674-1.228-.77-1.4-.095-.175v8.604l3.852-.003c3.546-.002 3.86-.004 3.928-.018a1.34 1.34 0 0 0 1.075-1.041l.02-.084.003-6.733c.002-4.929 0-6.757-.008-6.825a1.32 1.32 0 0 0-.716-1.025 1.42 1.42 0 0 0-.325-.119c-.064-.015-.226-.017-2.78-.02zm3.158 5.812a2.117 2.117 0 0 1 1.372.494c.093.078.28.268.28.286 0 .011-.663.675-.668.669a1.231 1.231 0 0 0-.554-.437 1.19 1.19 0 0 0-.006-.003l-.022-.008a1.19 1.19 0 0 0-.03-.01 1.19 1.19 0 0 0-.029-.008 1.19 1.19 0 0 0-.03-.008 1.19 1.19 0 0 0-.025-.007l-.004-.001a1.19 1.19 0 0 0-.03-.006 1.19 1.19 0 0 0-.03-.006 1.19 1.19 0 0 0-.003 0 1.226 1.226 0 0 0-.315-.014 1.19 1.19 0 0 0-.073.008 1.19 1.19 0 0 0-.088.016 1.19 1.19 0 0 0-.085.023 1.19 1.19 0 0 0-.085.03 1.19 1.19 0 0 0-.081.035 1.19 1.19 0 0 0-.07.036.407.407 0 0 0-.004.003 1.19 1.19 0 0 0-.005.003 1.19 1.19 0 0 0-.006.003 1.19 1.19 0 0 0-.066.042 1.19 1.19 0 0 0-.003.002 1.19 1.19 0 0 0-.003.002l-.004.003a1.19 1.19 0 0 0-.05.037l-.008.006a1.08 1.08 0 0 0-.022.018l-.032.028-.027.024a1.123 1.123 0 0 0-.075.078 1.18 1.18 0 0 0-.244.437l-.026.086h-.947l.013-.086a2.127 2.127 0 0 1 1.532-1.701c.18-.05.366-.074.553-.074zm1.198 2.033h.927a2.117 2.117 0 0 1 .003.093 2.117 2.117 0 0 1-2.118 2.117 2.117 2.117 0 0 1-.151-.01 1.164 1.164 0 0 1-.093-.005l-.015-.002a2.117 2.117 0 0 1-.036-.005 2.177 2.177 0 0 1-.22-.044 2.117 2.117 0 0 1-.063-.017 2.134 2.134 0 0 1-.215-.073 2.117 2.117 0 0 1-.038-.016h-.002c-.07-.03-.14-.065-.207-.103a2.117 2.117 0 0 1-.043-.025 2.106 2.106 0 0 1-.188-.126 2.117 2.117 0 0 1-.038-.03 2.116 2.116 0 0 1-.169-.148l-.005-.005a2.117 2.117 0 0 1-.032-.032 2.066 2.066 0 0 1-.586-1.199v-.028h.943l.012.05a1.18 1.18 0 0 0 1.095.874 1.158 1.158 0 0 0 .996-.472h-.871v-.794h1.114z" transform="translate(-58.397 -37.286)"/></svg>