<?xml version="1.0" encoding="UTF-8" standalone="no"?>
<!-- Created with Inkscape (http://www.inkscape.org/) -->

<svg
   width="530"
   height="122"
   viewBox="0 0 140.2274 32.27876"
   version="1.1"
   id="svg1459"
   inkscape:version="1.1.2 (b8e25be833, 2022-02-05)"
   sodipodi:docname="Site-logo-white.svg"
   xmlns:inkscape="http://www.inkscape.org/namespaces/inkscape"
   xmlns:sodipodi="http://sodipodi.sourceforge.net/DTD/sodipodi-0.dtd"
   xmlns="http://www.w3.org/2000/svg"
   xmlns:svg="http://www.w3.org/2000/svg">
  <sodipodi:namedview
     id="namedview1461"
     pagecolor="#ffffff"
     bordercolor="#666666"
     borderopacity="1.0"
     inkscape:pageshadow="2"
     inkscape:pageopacity="0.0"
     inkscape:pagecheckerboard="0"
     inkscape:document-units="px"
     showgrid="false"
     inkscape:zoom="1.290846"
     inkscape:cx="427.2392"
     inkscape:cy="375.7226"
     inkscape:window-width="3167"
     inkscape:window-height="1720"
     inkscape:window-x="100"
     inkscape:window-y="156"
     inkscape:window-maximized="0"
     inkscape:current-layer="layer1"
     units="px" />
  <defs
     id="defs1456" />
  <g
     inkscape:label="Layer 1"
     inkscape:groupmode="layer"
     id="layer1">
    <path
       id="path16583"
       style="font-size:50.8px;line-height:1.25;font-family:Niconne;-inkscape-font-specification:'Niconne, Normal';stroke-width:0.264583;fill-opacity:1;fill:#ffffff"
       d="M 13.282911,0 C 12.513965,0 11.728483,0.11575521 10.926465,0.34726564 9.3389655,0.81028645 7.9623055,1.6660482 6.796485,2.9145507 5.5975915,4.2043945 4.9981448,5.705078 4.9981448,7.4166015 c 0,1.1823565 0.5622397,2.4804685 1.6867192,3.8943365 -0.5208985,-0.173633 -1.091406,-0.26045 -1.7115237,-0.26045 -1.1988934,0 -2.3068362,0.289388 -3.3238286,0.868164 C 1.1616861,12.199772 0.7648112,12.584245 0.45888671,13.07207 0.15296224,13.559896 0,14.113867 0,14.733984 c 0,0.611849 0.18603515,1.157552 0.55810545,1.637109 0.3720703,0.471289 0.85162755,0.835091 1.43867185,1.091406 1.1410162,0.504362 2.3316411,0.756543 3.5718757,0.756543 1.637109,0 3.187402,-0.289387 4.650879,-0.868164 0.752409,-0.297656 1.44694,-0.694531 2.083594,-1.190625 0.644922,-0.504362 1.219564,-1.087272 1.723926,-1.74873 0.51263,-0.661458 0.930175,-1.459342 1.252636,-2.393652 0.330729,-0.93431 0.541569,-2.005045 0.63252,-3.212207 0.09095,-1.2071615 0.1819,-2.1373375 0.272851,-2.7905275 0.355534,-2.4804685 1.050065,-3.7207029 2.083594,-3.7207029 0.719336,0 1.480013,-0.1364258 2.282031,-0.4092773 0.429948,-0.1488282 0.810287,-0.3844727 1.141016,-0.7069336 0.330729,-0.322461 0.549837,-0.70693366 0.657324,-1.15341801 H 21.406446 C 21.05918,0.42167969 20.75739,0.69039715 20.501075,0.83095705 20.310905,0.938444 19.980176,0.9921875 19.508887,0.9921875 c -0.471289,0 -1.434538,-0.1653646 -2.889746,-0.49609377 C 15.163933,0.16536459 14.051856,0 13.282911,0 Z M 76.708495,0 C 76.04704,0 75.38558,0.18603515 74.72412,0.5581055 74.062665,0.9301758 73.521095,1.409733 73.099415,1.9967773 72.677735,2.5755533 72.3222,3.2452799 72.03281,4.005957 71.743425,4.758366 71.53672,5.5066405 71.412695,6.250781 71.28867,6.9866535 71.22666,7.79694 71.22666,8.6816405 c 0,0.8764325 0.144695,1.8727545 0.43408,2.9889655 0.297655,1.107942 0.727605,2.112532 1.289845,3.013769 l 0.48369,-0.409277 c -1.03353,-1.703255 -1.55029,-3.683496 -1.55029,-5.940723 0,-1.190625 0.227375,-2.4225915 0.68213,-3.6958985 0.248045,-0.6779947 0.5457,-1.2898437 0.892965,-1.8355468 0.347265,-0.5539714 0.789615,-1.008724 1.327055,-1.3642578 0.5457,-0.3638021 1.13688,-0.54570315 1.773535,-0.54570315 1.71152,0 2.563145,1.12861325 2.55488,3.38583985 0,2.2489584 -0.777215,5.5727864 -2.33164,9.9714844 L 75.493065,17.88418 H 77.7999 c 0.0248,0 0.157095,-0.305925 0.396875,-0.917774 0.24805,-0.611849 0.570515,-1.405599 0.967385,-2.38125 0.405145,-0.975651 0.859895,-2.050521 1.36426,-3.224609 0.51263,-1.182357 1.070735,-2.364714 1.674315,-3.5470705 0.60358,-1.182357 1.198895,-2.2613605 1.785935,-3.2370117 0.595315,-0.975651 1.20303,-1.769401 1.823145,-2.3812499 0.62012,-0.611849 1.178225,-0.9177735 1.674315,-0.9177735 0.504365,0 0.756545,0.4878255 0.756545,1.4634766 0,1.3394531 -0.55397,3.6256185 -1.661915,6.858496 -0.41341,1.207162 -0.793745,2.443262 -1.141015,3.708301 -0.34726,1.256771 -0.5209,2.203483 -0.5209,2.840137 0,0.636653 0.14056,1.132746 0.42168,1.488281 0.28112,0.355533 0.61598,0.533301 1.00459,0.533301 0.65319,0 1.31052,-0.289388 1.971975,-0.868164 0.66146,-0.587045 1.19476,-1.384929 1.5999,-2.393653 l -0.63252,-0.533301 c -0.14056,0.33073 -0.44648,0.806153 -0.91777,1.42627 -0.46302,0.611849 -0.81442,0.917773 -1.0542,0.917773 -0.23978,0 -0.35967,-0.351399 -0.35967,-1.054199 0,-0.702799 0.384475,-2.166276 1.15342,-4.390429 0.32246,-0.93431 0.64492,-1.893425 0.96738,-2.8773445 0.322465,-0.983919 0.595315,-1.988509 0.818555,-3.0137695 C 90.11543,4.3490885 90.22705,3.4437174 90.22705,2.6665039 90.22705,1.8892904 90.03688,1.2526367 89.656545,0.756543 89.276205,0.25218099 88.705695,0 87.94502,0 87.184345,0 86.374055,0.40100914 85.51416,1.2030273 85.14209,1.5502929 84.757615,1.9926432 84.36074,2.5300781 83.972135,3.0592448 83.629005,3.5718749 83.331345,4.0679687 83.03369,4.5640624 82.715365,5.13457 82.376365,5.779492 c -0.339,0.644922 -0.61185,1.194759 -0.818555,1.649512 -0.206705,0.446484 -0.44235,0.950846 -0.70693,1.5130855 -0.25632,0.56224 -0.483695,1.045931 -0.68213,1.4510745 -0.19017,0.396875 -0.417545,0.963249 -0.68213,1.699121 0.33073,-1.248502 0.62012,-2.6210285 0.868165,-4.117578 0.198435,-1.231966 0.297655,-2.3192385 0.297655,-3.2618164 0,-0.9425781 -0.173635,-1.8107422 -0.520895,-2.6044921 C 79.941375,1.6867187 79.70573,1.3229166 79.42461,1.0169922 79.14349,0.7027995 78.787955,0.45475259 78.35801,0.27285159 77.92806,0.09095052 77.37822,0 76.708495,0 Z M 33.399512,0.35966799 c -1.546159,0 -2.864942,0.64905591 -3.956348,1.94716801 -1.322916,1.5792317 -2.476334,4.365625 -3.460253,8.35918 h -2.306836 l -0.198438,0.818554 h 2.33164 l -0.297656,1.265039 c -0.07441,0.314193 -0.181901,0.810287 -0.322461,1.488281 -0.132291,0.669727 -0.252181,1.248503 -0.359668,1.736328 -0.677994,3.092319 -1.442806,4.704624 -2.294433,4.836914 0.115755,-0.181899 0.173633,-0.376203 0.173633,-0.58291 0,-0.198436 -0.08268,-0.355532 -0.248047,-0.471288 -0.165365,-0.115754 -0.37207,-0.173633 -0.620117,-0.173633 -0.256315,0 -0.467155,0.09095 -0.63252,0.272851 -0.165365,0.1819 -0.248047,0.396873 -0.248047,0.644922 0,0.256314 0.09509,0.471289 0.285254,0.644922 0.190169,0.1819 0.520898,0.272852 0.992188,0.272852 0.46302,0 0.921907,-0.09922 1.37666,-0.297657 1.099674,-0.479557 2.000911,-1.624705 2.703711,-3.435449 0.363802,-0.950846 0.822688,-2.596224 1.37666,-4.936133 L 27.99209,11.48457 h 2.232422 l -0.297656,1.265039 c -0.07442,0.314193 -0.181902,0.810287 -0.322461,1.488281 -0.132292,0.669727 -0.252181,1.248503 -0.359668,1.736328 -0.677995,3.092319 -1.442806,4.704624 -2.294434,4.836914 0.115755,-0.181899 0.173633,-0.376203 0.173633,-0.58291 0,-0.198436 -0.08268,-0.355532 -0.248047,-0.471288 -0.165365,-0.115754 -0.37207,-0.173633 -0.620117,-0.173633 -0.256315,0 -0.467155,0.09095 -0.63252,0.272851 -0.165364,0.1819 -0.248047,0.396873 -0.248047,0.644922 0,0.256314 0.09508,0.471289 0.285254,0.644922 0.19017,0.1819 0.520899,0.272852 0.992188,0.272852 0.463021,0 0.921907,-0.09922 1.37666,-0.297657 1.099674,-0.479557 2.000911,-1.624705 2.70371,-3.435449 0.363804,-0.950846 0.822689,-2.596224 1.376661,-4.936133 l 0.297656,-1.265039 h 2.951758 l 0.198437,-0.818554 h -2.96416 c 0.747914,-3.2679115 1.512283,-5.6981039 2.293143,-7.291286 0.21693,-0.047407 0.412035,-0.1421487 0.584201,-0.2865464 0.264583,-0.2232422 0.396875,-0.5250325 0.396875,-0.9053711 0,-0.1072647 -0.0072,-0.208952 -0.02016,-0.3061824 0.131934,-0.1379763 0.270759,-0.2596158 0.417028,-0.3635441 0.322461,-0.2315105 0.599447,-0.3472657 0.830957,-0.3472657 0.231511,0 0.549837,0.07028 0.954981,0.2108399 -0.223243,0.3059245 -0.334864,0.6201172 -0.334864,0.9425781 0,0.3224609 0.11989,0.5870443 0.359668,0.79375 0.248047,0.1984375 0.545703,0.2976562 0.892969,0.2976562 0.355534,0 0.661459,-0.1074869 0.917773,-0.3224609 0.264584,-0.2232422 0.396875,-0.5250325 0.396875,-0.9053711 0,-0.6531901 -0.239778,-1.120345 -0.719335,-1.40146485 -0.47129,-0.28111975 -1.0542,-0.42167966 -1.748731,-0.42167966 -0.872528,0 -1.67266,0.20698221 -2.40037,0.62037516 -0.07866,-0.074037 -0.16697,-0.14056655 -0.266132,-0.1986955 -0.471289,-0.28111975 -1.0542,-0.42167966 -1.74873,-0.42167966 z M 32.680175,1.1658203 c 0.231511,0 0.549838,0.07028 0.954981,0.2108398 -0.223242,0.3059245 -0.334864,0.6201172 -0.334864,0.9425781 0,0.2011112 0.04678,0.3797988 0.140044,0.5358845 -1.149245,1.6408902 -2.163382,4.2439628 -3.042192,7.8108933 H 28.178125 C 29.0959,6.6559245 30.038477,3.9067383 31.005859,2.418457 31.253906,2.0381185 31.535026,1.7363281 31.849218,1.5130859 32.17168,1.2815755 32.448665,1.1658203 32.680175,1.1658203 Z M 11.707813,1.5006836 c 1.752864,0 3.423047,0.2025716 5.010547,0.6077149 -1.000456,0.868164 -1.769401,2.0835937 -2.306836,3.646289 -0.239778,0.694531 -0.467155,1.4345375 -0.682129,2.2200195 -0.206705,0.7772135 -0.409277,1.5420245 -0.607715,2.294434 -0.198438,0.74414 -0.421679,1.475879 -0.669726,2.195215 -0.239779,0.719335 -0.545703,1.380794 -0.917773,1.984375 -0.363803,0.60358 -0.797884,1.136881 -1.302247,1.599901 -0.4960935,0.454753 -1.124479,0.810287 -1.885156,1.066602 -0.752409,0.256315 -1.6784505,0.384473 -2.778125,0.384473 -1.0914066,0 -1.9761071,-0.268718 -2.6541018,-0.806153 -0.669727,-0.545702 -1.0045903,-1.198893 -1.0045903,-1.95957 0,-0.760677 0.343132,-1.422135 1.029395,-1.984375 0.686263,-0.570507 1.5792315,-0.855761 2.6789066,-0.855761 1.099674,0 2.2572265,0.318327 3.472656,0.95498 l 0.359668,0.136426 0.173633,-0.63252 C 8.466667,11.773958 7.5736985,11.104231 6.945313,10.343555 6.325196,9.5828775 6.0151375,8.6485675 6.0151375,7.540625 c 0,-1.107943 0.260449,-2.120801 0.7813475,-3.0385742 C 7.3256515,3.5842773 8.028451,2.8566732 8.9048835,2.3192383 9.7813155,1.7735352 10.715625,1.5006836 11.707813,1.5006836 Z M 22.225,5.519043 c -0.37207,0 -0.677995,0.1364255 -0.917773,0.409277 -0.23151,0.2645835 -0.347265,0.570508 -0.347265,0.9177735 0,0.347266 0.09508,0.636654 0.285253,0.868164 0.19017,0.2232425 0.475423,0.3348635 0.855762,0.3348635 0.380338,0 0.682129,-0.136426 0.905371,-0.4092775 0.223242,-0.2728515 0.334863,-0.574642 0.334863,-0.905371 0,-0.3389975 -0.09509,-0.6242515 -0.285253,-0.8557615 C 22.874057,5.638932 22.59707,5.519043 22.225,5.519043 Z m 76.2,2.207617 c -0.826825,0 -1.51722,0.28112 -2.07119,0.8433595 -0.545705,0.553971 -0.85163,1.1451495 -0.917775,1.7735355 -0.132295,-0.01654 -0.326595,-0.02481 -0.58291,-0.02481 -1.13275,0 -2.153875,0.39274 -3.06338,1.178222 -0.901235,0.785482 -1.351855,1.694987 -1.351855,2.728516 0,1.02526 0.43822,1.905827 1.31465,2.641699 l -1.500685,1.475879 c -0.19844,0.124023 -0.297655,0.310058 -0.297655,0.558105 0,0.248047 0.17363,0.516763 0.520895,0.806152 -0.07441,0.02481 -0.161225,0.06201 -0.260445,0.111621 -0.66973,0.305923 -1.00459,0.686262 -1.00459,1.141016 0,0.570507 0.5333,0.992187 1.5999,1.265039 0.545705,0.14056 1.14102,0.21084 1.78594,0.21084 1.29811,0 2.37298,-0.181899 3.224605,-0.545703 0.446485,-0.19017 0.797885,-0.454754 1.0542,-0.79375 0.256315,-0.338996 0.384475,-0.731735 0.384475,-1.178222 0,-0.446484 -0.235645,-0.793752 -0.706935,-1.041797 -0.47129,-0.239779 -1.12448,-0.376205 -1.95957,-0.409278 l -2.455665,-0.09922 c -0.40514,-0.02481 -0.607715,-0.152963 -0.607715,-0.384473 0,-0.148828 0.243915,-0.425814 0.73174,-0.830957 0.46302,0.181901 1.0542,0.272851 1.773535,0.272851 1.091405,0 2.07119,-0.388606 2.939355,-1.16582 0.868165,-0.777213 1.302245,-1.707389 1.302245,-2.790527 0,-0.628386 -0.214975,-1.231966 -0.64492,-1.810742 -0.42995,-0.587045 -0.975655,-1.000456 -1.63711,-1.240235 0,-0.23151 0.14883,-0.4919595 0.446485,-0.7813475 C 96.74655,9.338964 97.14756,9.12399 97.64365,8.9916985 c 0.07442,0.28112 0.210845,0.500228 0.40928,0.6573245 0.19844,0.157096 0.425815,0.2356445 0.68213,0.2356445 0.256315,0 0.475425,-0.090951 0.65732,-0.2728515 0.190175,-0.1901695 0.285255,-0.4464845 0.285255,-0.7689455 0,-0.7441405 -0.417545,-1.116211 -1.252635,-1.1162105 z m -77.626269,2.666504 c -1.016993,0 -2.133203,1.025261 -3.348633,3.075781 l 0.830957,0.483692 c 0.644922,-1.141016 1.112077,-1.711524 1.401465,-1.711524 0.115755,0 0.173633,0.09095 0.173633,0.272852 0,0.173633 -0.09922,0.525032 -0.297656,1.054199 -0.190169,0.529167 -0.384473,1.120345 -0.58291,1.773535 -0.19017,0.644922 -0.285254,1.157552 -0.285254,1.537891 0,0.37207 0.09922,0.665592 0.297656,0.880566 0.198437,0.214974 0.471289,0.322461 0.818555,0.322461 0.355534,0 0.839225,-0.248047 1.451074,-0.74414 0.620117,-0.496094 1.153418,-1.157553 1.599902,-1.984375 L 22.336621,14.87041 c -0.752409,1.041797 -1.269173,1.562695 -1.550293,1.562695 -0.148828,0 -0.223242,-0.09508 -0.223242,-0.285253 0,-0.198438 0.04548,-0.417546 0.136426,-0.657325 l 0.892969,-2.554882 c 0.165364,-0.56224 0.248047,-0.971517 0.248047,-1.227832 0,-0.876433 -0.347266,-1.314649 -1.041797,-1.314649 z m 17.896581,0 c -1.157552,0 -2.166276,0.454753 -3.026171,1.364258 -0.859896,0.909505 -1.289844,2.025716 -1.289844,3.348632 0,0.851628 0.248047,1.562696 0.74414,2.133203 0.504362,0.56224 1.169955,0.84336 1.996778,0.84336 0.835091,0 1.583365,-0.314193 2.244824,-0.942578 0.347266,-0.322461 0.58291,-0.694532 0.706933,-1.116211 -0.01653,0.09095 -0.02481,0.227376 -0.02481,0.409277 0,1.099674 0.355534,1.649512 1.066602,1.649512 0.603581,0 1.314648,-0.425814 2.133203,-1.277442 0.42168,-0.438216 0.768947,-0.921907 1.041797,-1.451073 l -0.533301,-0.496094 -0.285254,0.396875 c -0.181901,0.264583 -0.405143,0.529166 -0.669726,0.793749 -0.256315,0.256315 -0.458887,0.384473 -0.607715,0.384473 -0.148828,0 -0.223242,-0.210839 -0.223242,-0.632519 0,-0.429948 0.07855,-0.905371 0.235644,-1.42627 l 0.979785,-3.7083 H 41.25019 l -0.372071,1.451074 c -0.115753,-0.51263 -0.363802,-0.926042 -0.74414,-1.240234 -0.380339,-0.322461 -0.859896,-0.483692 -1.438672,-0.483692 z m 9.264551,0 c -0.562239,0 -1.112077,0.252181 -1.649512,0.756543 -0.537435,0.496094 -1.128613,1.269173 -1.773535,2.319238 l 0.830957,0.483692 c 0.01653,-0.0248 0.05374,-0.09095 0.111621,-0.198438 0.06615,-0.115755 0.124023,-0.21084 0.173633,-0.285254 0.04961,-0.08268 0.111621,-0.190169 0.186035,-0.322461 0.330729,-0.570507 0.615983,-0.855761 0.855762,-0.855761 0.132291,0 0.198437,0.202571 0.198437,0.607715 0,0.396875 -0.359668,1.670182 -1.079004,3.819921 l -0.384472,1.165821 h 1.74873 l 0.334863,-0.595313 c 0.669727,-1.207161 1.327051,-2.273763 1.971973,-3.199804 0.405143,-0.578776 0.822689,-1.066602 1.252639,-1.463477 0.429945,-0.405143 0.802015,-0.607715 1.11621,-0.607715 0.27285,0 0.409275,0.202572 0.409275,0.607715 0,0.396875 -0.169495,1.07487 -0.508495,2.033984 -0.33073,0.950847 -0.496095,1.63711 -0.496095,2.058789 0,0.42168 0.103355,0.756543 0.31006,1.00459 0.206705,0.239779 0.49196,0.359668 0.85576,0.359668 0.37207,0 0.85163,-0.227376 1.438675,-0.682129 0.595315,-0.463021 1.141015,-1.145149 1.63711,-2.046386 l -0.5209,-0.496094 c -0.248045,0.380338 -0.5333,0.74414 -0.85576,1.091406 -0.322465,0.338997 -0.566375,0.508496 -0.73174,0.508496 -0.124025,0 -0.186035,-0.124023 -0.186035,-0.37207 0,-0.256315 0.19017,-0.913639 0.57051,-1.971973 0.388605,-1.058333 0.58291,-1.802474 0.58291,-2.232422 0,-0.429948 -0.11576,-0.785481 -0.34727,-1.066601 -0.23151,-0.28112 -0.578775,-0.42168 -1.041795,-0.42168 -1.372525,0 -2.92282,1.335319 -4.650879,4.005957 0.0083,-0.04134 0.05374,-0.214974 0.136425,-0.520898 0.09095,-0.305925 0.161231,-0.553972 0.21084,-0.744141 0.05788,-0.198437 0.111621,-0.44235 0.161231,-0.731738 0.04961,-0.297656 0.07441,-0.599447 0.07441,-0.905371 0,-0.305925 -0.09509,-0.566374 -0.285254,-0.781348 -0.181901,-0.214974 -0.401008,-0.322461 -0.657324,-0.322461 z m 11.174512,0 c -0.487825,0 -1.041795,0.272852 -1.661915,0.818555 -0.61185,0.545703 -1.12448,1.178222 -1.53789,1.897558 l 0.806155,0.483692 c 0.0496,-0.09095 0.16123,-0.272852 0.33486,-0.545703 0.04135,-0.06615 0.09922,-0.161231 0.173635,-0.285254 0.08268,-0.124024 0.157095,-0.219108 0.22324,-0.285254 0.06615,-0.07441 0.136425,-0.148828 0.21084,-0.223242 0.08268,-0.08268 0.165365,-0.14056 0.24805,-0.173633 0.08268,-0.04134 0.157095,-0.06201 0.22324,-0.06201 0.07442,0 0.11162,0.07855 0.11162,0.235644 0,0.148828 -0.17363,0.777214 -0.5209,1.885156 -0.338995,1.099675 -0.508495,1.876888 -0.508495,2.331641 0,0.454753 0.103355,0.839225 0.31006,1.153418 0.206705,0.305924 0.537435,0.458887 0.992185,0.458887 1.116215,0 2.406055,-0.620118 3.869535,-1.860352 -0.0331,0.206706 -0.26872,0.711068 -0.706935,1.513086 -0.438215,0.79375 -0.7152,1.256773 -0.830955,1.389063 -1.45521,0.06615 -2.745055,0.330731 -3.869535,0.79375 -0.55397,0.223243 -0.99632,0.51263 -1.32705,0.868164 -0.33073,0.363803 -0.496095,0.764811 -0.496095,1.203027 0,0.438216 0.1571,0.781348 0.47129,1.029394 0.305925,0.256314 0.76895,0.384473 1.389065,0.384473 0.628385,0 1.360125,-0.310059 2.195215,-0.930176 0.84336,-0.61185 1.666045,-1.434539 2.468065,-2.468066 0.87643,0.04134 1.885155,0.177767 3.02617,0.409278 l 0.09922,-0.694532 c -0.74414,-0.23978 -1.591635,-0.40928 -2.54248,-0.508496 1.091405,-1.570964 1.89756,-3.166732 2.418455,-4.787305 l 0.94258,-2.75332 c 0.07442,-0.206706 0.11162,-0.405143 0.11162,-0.595312 0,-0.19017 -0.05788,-0.343132 -0.17363,-0.458887 -0.107485,-0.115755 -0.25218,-0.173633 -0.434085,-0.173633 -0.17363,0 -0.35553,0.07441 -0.5457,0.223242 -0.19017,0.148828 -0.33073,0.3514 -0.42168,0.607715 l -0.868165,2.530078 c -0.23978,0.686263 -0.760675,1.314649 -1.562695,1.885156 -0.79375,0.56224 -1.56683,0.84336 -2.31924,0.84336 -0.14056,0 -0.23151,-0.04134 -0.27285,-0.124024 -0.04135,-0.09095 -0.06201,-0.289388 -0.06201,-0.595312 0,-0.305925 0.20257,-1.033529 0.607715,-2.182812 0.41341,-1.149284 0.620115,-1.872754 0.620115,-2.17041 0,-0.711069 -0.396875,-1.066602 -1.190625,-1.066602 z m 43.110545,0 c -1.05006,0 -2.14147,0.905371 -3.274215,2.716113 l 0.80615,0.483692 c 0.587045,-1.050065 1.045935,-1.575098 1.376665,-1.575098 0.11575,0 0.17363,0.09509 0.17363,0.285254 0,0.181901 -0.17777,0.797884 -0.5333,1.847949 -0.35553,1.041797 -0.5333,1.810742 -0.5333,2.306836 0,1.083138 0.49196,1.624707 1.47588,1.624707 0.39687,0 0.80201,-0.107487 1.21543,-0.322461 0.1819,-0.09095 0.37207,-0.219108 0.57051,-0.384473 0.19843,-0.173632 0.36793,-0.330729 0.50849,-0.471288 0.14883,-0.14056 0.3142,-0.33073 0.49609,-0.570508 0.19018,-0.239779 0.339,-0.434082 0.44649,-0.58291 0.11575,-0.157097 0.25631,-0.367937 0.42168,-0.63252 0.17363,-0.272852 0.29765,-0.475423 0.37206,-0.607715 0.0744,-0.132291 0.19017,-0.330729 0.34727,-0.595312 0.1571,-0.272852 0.25632,-0.446485 0.29766,-0.520899 0,0.0083 -0.14056,0.446485 -0.42168,1.314649 -0.28112,0.868164 -0.42168,1.604036 -0.42168,2.207616 0,0.777214 0.38447,1.165821 1.15341,1.165821 0.37208,0 0.85577,-0.256315 1.45108,-0.768946 0.60358,-0.520898 1.12448,-1.174088 1.56269,-1.95957 l -0.53329,-0.508496 c -0.69453,1.058333 -1.2237,1.5875 -1.58751,1.5875 -0.13229,0 -0.19843,-0.132292 -0.19843,-0.396875 0,-0.628385 0.55397,-2.418457 1.66191,-5.370215 h -1.77354 l -0.33486,0.595313 c -0.69453,1.223698 -1.36425,2.290299 -2.00918,3.199804 -0.40514,0.578776 -0.82682,1.070736 -1.26504,1.475879 -0.42995,0.396875 -0.80201,0.595313 -1.11621,0.595313 -0.27285,0 -0.40928,-0.148828 -0.40928,-0.446485 0,-0.545703 0.19431,-1.331185 0.58291,-2.356445 0.39688,-1.033529 0.59945,-1.74873 0.60772,-2.145605 0.0165,-0.405144 -0.0786,-0.7028 -0.28525,-0.892969 -0.20671,-0.198438 -0.4837,-0.297656 -0.83096,-0.297656 z m 11.12491,0 c -0.48783,0 -1.0418,0.272852 -1.66192,0.818555 -0.61185,0.545703 -1.12447,1.178222 -1.53789,1.897558 l 0.80615,0.483692 c 0.0496,-0.09095 0.16123,-0.272852 0.33487,-0.545703 0.0413,-0.06615 0.0992,-0.161231 0.17363,-0.285254 0.0827,-0.124024 0.1571,-0.219108 0.22324,-0.285254 0.0662,-0.07441 0.13643,-0.148828 0.21084,-0.223242 0.0827,-0.08268 0.16537,-0.14056 0.24805,-0.173633 0.0827,-0.04134 0.1571,-0.06201 0.22324,-0.06201 0.0744,0 0.11162,0.07855 0.11162,0.235644 0,0.148828 -0.17363,0.777214 -0.5209,1.885156 -0.33899,1.099675 -0.50849,1.876888 -0.50849,2.331641 0,0.454753 0.10335,0.839225 0.31006,1.153418 0.2067,0.305924 0.53743,0.458887 0.99218,0.458887 1.11621,0 2.40606,-0.620118 3.86953,-1.860352 -0.0331,0.206706 -0.26871,0.711068 -0.70693,1.513086 -0.43821,0.79375 -0.7152,1.256773 -0.83096,1.389063 -1.45521,0.06615 -2.74505,0.330731 -3.86953,0.79375 -0.55397,0.223243 -0.99632,0.51263 -1.32705,0.868164 -0.33073,0.363803 -0.49609,0.764811 -0.49609,1.203027 0,0.438216 0.15709,0.781348 0.47129,1.029394 0.30592,0.256314 0.76894,0.384473 1.38906,0.384473 0.62839,0 1.36012,-0.310059 2.19521,-0.930176 0.84337,-0.61185 1.66606,-1.434539 2.46807,-2.468066 0.87643,0.04134 1.88516,0.177767 3.02617,0.409278 l 0.0992,-0.694532 c -0.74414,-0.23978 -1.59163,-0.40928 -2.54248,-0.508496 1.09141,-1.570964 1.89756,-3.166732 2.41846,-4.787305 l 0.94258,-2.75332 c 0.0744,-0.206706 0.11162,-0.405143 0.11162,-0.595312 0,-0.19017 -0.0579,-0.343132 -0.17364,-0.458887 -0.10748,-0.115755 -0.25218,-0.173633 -0.43408,-0.173633 -0.17363,0 -0.35553,0.07441 -0.5457,0.223242 -0.19017,0.148828 -0.33073,0.3514 -0.42168,0.607715 l -0.86816,2.530078 c -0.23978,0.686263 -0.76068,1.314649 -1.5627,1.885156 -0.79375,0.56224 -1.56683,0.84336 -2.31924,0.84336 -0.14056,0 -0.23151,-0.04134 -0.27285,-0.124024 -0.0414,-0.09095 -0.062,-0.289388 -0.062,-0.595312 0,-0.305925 0.20257,-1.033529 0.60771,-2.182812 0.41341,-1.149284 0.62012,-1.872754 0.62012,-2.17041 0,-0.711069 -0.39687,-1.066602 -1.19062,-1.066602 z m 11.96826,0 c -0.76068,0 -1.53376,0.198438 -2.31924,0.595313 -0.77721,0.396875 -1.42627,0.959114 -1.94717,1.686718 -0.52089,0.719336 -0.78135,1.504818 -0.78135,2.356446 0,0.851627 0.29766,1.575097 0.89297,2.170409 0.59531,0.587045 1.33945,0.880567 2.23242,0.880567 0.30593,0 0.62426,-0.02481 0.95498,-0.07441 1.50482,-0.256315 2.60036,-0.959115 3.28663,-2.108399 l -0.5333,-0.347265 c -0.30593,0.355533 -0.70694,0.665592 -1.20303,0.930175 -0.48783,0.256315 -0.95912,0.384473 -1.41387,0.384473 -1.23197,0 -1.87276,-0.475423 -1.92236,-1.42627 l 0.5333,0.0248 c 1.04179,0 2.10426,-0.219108 3.1874,-0.657324 0.5457,-0.223242 0.99632,-0.545703 1.35186,-0.967383 0.35553,-0.429948 0.52503,-0.938444 0.50849,-1.525488 -0.008,-0.587044 -0.29352,-1.054199 -0.85576,-1.401465 -0.55397,-0.347266 -1.2113,-0.520898 -1.97197,-0.520898 z m 6.73447,0 c -0.56224,0 -1.11208,0.252181 -1.64952,0.756543 -0.53743,0.496094 -1.12861,1.269173 -1.77353,2.319238 l 0.83096,0.483692 c 0.0165,-0.0248 0.0537,-0.09095 0.11162,-0.198438 0.0661,-0.115755 0.12402,-0.21084 0.17363,-0.285254 0.0496,-0.08268 0.11162,-0.190169 0.18603,-0.322461 0.33073,-0.570507 0.61599,-0.855761 0.85577,-0.855761 0.13229,0 0.19843,0.202571 0.19843,0.607715 0,0.396875 -0.35966,1.670182 -1.079,3.819921 l -0.38447,1.165821 h 1.74873 l 0.33486,-0.595313 c 0.66973,-1.207161 1.32705,-2.273763 1.97197,-3.199804 0.40515,-0.578776 0.82269,-1.066602 1.25264,-1.463477 0.42995,-0.405143 0.80202,-0.607715 1.11621,-0.607715 0.27286,0 0.40928,0.202572 0.40928,0.607715 0,0.396875 -0.1695,1.07487 -0.5085,2.033984 -0.33073,0.950847 -0.49609,1.63711 -0.49609,2.058789 0,0.42168 0.10335,0.756543 0.31006,1.00459 0.2067,0.239779 0.49196,0.359668 0.85576,0.359668 0.37207,0 0.85163,-0.227376 1.43867,-0.682129 0.59531,-0.463021 1.14102,-1.145149 1.63711,-2.046386 l -0.5209,-0.496094 c -0.24805,0.380338 -0.5333,0.74414 -0.85576,1.091406 -0.32246,0.338997 -0.56638,0.508496 -0.73174,0.508496 -0.12402,0 -0.18603,-0.124023 -0.18603,-0.37207 0,-0.256315 0.19017,-0.913639 0.5705,-1.971973 0.38861,-1.058333 0.58291,-1.802474 0.58291,-2.232422 0,-0.429948 -0.11575,-0.785481 -0.34726,-1.066601 -0.23151,-0.28112 -0.57878,-0.42168 -1.0418,-0.42168 -1.37252,0 -2.92282,1.335319 -4.65088,4.005957 0.008,-0.04134 0.0538,-0.214974 0.13643,-0.520898 0.091,-0.305925 0.16123,-0.553972 0.21084,-0.744141 0.0579,-0.198437 0.11162,-0.44235 0.16123,-0.731738 0.0496,-0.297656 0.0744,-0.599447 0.0744,-0.905371 0,-0.305925 -0.0951,-0.566374 -0.28525,-0.781348 -0.1819,-0.214974 -0.40101,-0.322461 -0.65732,-0.322461 z m -37.269045,0.756543 c 0.45475,0 0.806155,0.243913 1.0542,0.731738 0.24805,0.479558 0.37207,0.954981 0.37207,1.42627 0,1.223698 -0.297655,2.162142 -0.89297,2.815331 -0.338995,0.380339 -0.781345,0.570508 -1.32705,0.570508 -0.545705,0 -0.92604,-0.272851 -1.141015,-0.818554 -0.09922,-0.256315 -0.1695,-0.508496 -0.21084,-0.756543 -0.04135,-0.256315 -0.06201,-0.566374 -0.06201,-0.930176 0,-0.37207 0.07441,-0.789616 0.22324,-1.252636 0.1571,-0.471289 0.413415,-0.884701 0.768945,-1.240235 0.355535,-0.363802 0.76068,-0.545703 1.21543,-0.545703 z m 30.522175,0.136426 c 0.21497,0 0.41754,0.09095 0.60771,0.272851 0.19017,0.173633 0.28525,0.446485 0.28525,0.818555 0,0.363802 -0.11162,0.715202 -0.33486,1.054199 -0.21497,0.330729 -0.60358,0.628386 -1.16582,0.892969 -0.55397,0.256315 -1.28984,0.401009 -2.20762,0.434082 0,-0.529167 0.11575,-1.054199 0.34726,-1.575098 0.23151,-0.529166 0.56638,-0.975651 1.00459,-1.339453 0.44649,-0.37207 0.93431,-0.558105 1.46349,-0.558105 z m -86.146687,0.173633 c 0.84336,0 1.26504,0.591178 1.26504,1.773535 0,1.182357 -0.376205,2.203483 -1.128614,3.063378 -0.396875,0.446485 -0.843358,0.669727 -1.339452,0.669727 -0.487825,0 -0.851628,-0.165365 -1.091407,-0.496094 -0.23151,-0.330729 -0.347265,-0.764811 -0.347265,-1.302246 0,-0.537435 0.111622,-1.087272 0.334863,-1.649512 0.223242,-0.570508 0.541569,-1.054199 0.95498,-1.451074 0.42168,-0.405143 0.872298,-0.607715 1.351855,-0.607714 z m 52.114647,8.458398 c 2.844275,0 4.26641,0.276984 4.26641,0.830957 0,0.644921 -0.92191,0.967383 -2.765725,0.967383 -0.727605,0 -1.28571,-0.05788 -1.674315,-0.173633 -0.38861,-0.107487 -0.58291,-0.318327 -0.58291,-0.63252 0,-0.198436 0.07441,-0.413411 0.22324,-0.644922 0.14883,-0.231513 0.326595,-0.347265 0.5333,-0.347265 z M 60.325,20.00498 c -0.22324,0.338996 -0.76481,0.781348 -1.624705,1.327051 -0.859895,0.55397 -1.480015,0.830957 -1.860355,0.830957 -0.380335,0 -0.570505,-0.152963 -0.570505,-0.458886 0,-0.512631 0.669725,-0.959114 2.00918,-1.339454 0.69453,-0.198436 1.37666,-0.318328 2.046385,-0.359668 z m 54.23545,0 c -0.22324,0.338996 -0.76481,0.781348 -1.62471,1.327051 -0.85989,0.55397 -1.48001,0.830957 -1.86035,0.830957 -0.38034,0 -0.57051,-0.152963 -0.57051,-0.458886 0,-0.512631 0.66973,-0.959114 2.00918,-1.339454 0.69453,-0.198436 1.37666,-0.318328 2.04639,-0.359668 z" />
    <path
       id="path16520"
       style="font-size:16.9333px;line-height:1.25;font-family:'Cambria Math';-inkscape-font-specification:'Cambria Math, Normal';stroke-width:0.264583;fill-opacity:1;fill:#ffffff"
       d="m 59.19897,25.988077 c -0.248045,0 -0.4644,0.02756 -0.649055,0.08268 -0.1819,0.05236 -0.354155,0.144693 -0.516765,0.276986 -0.15985,0.13229 -0.282495,0.292144 -0.367935,0.479557 -0.08269,0.187414 -0.13643,0.431325 -0.16123,0.731738 -0.011,0.126777 -0.0262,0.225997 -0.0455,0.297657 -0.01655,0.0689 -0.0372,0.121266 -0.06202,0.157096 -0.02205,0.03582 -0.0496,0.06338 -0.08268,0.08268 -0.0303,0.01926 -0.06339,0.03444 -0.09922,0.04547 -0.03305,0.0083 -0.101975,0.02067 -0.206705,0.03721 v 0.21084 h 0.50023 v 2.501139 c 0,0.190171 -0.0069,0.329352 -0.0207,0.417546 -0.0138,0.0882 -0.0358,0.155719 -0.06614,0.202571 -0.02755,0.04683 -0.06752,0.08542 -0.119885,0.115756 -0.05237,0.03033 -0.139185,0.06202 -0.26045,0.09508 v 0.202572 h 1.69085 v -0.202572 c -0.12402,-0.02755 -0.21497,-0.05512 -0.27285,-0.08268 -0.05512,-0.03032 -0.100595,-0.0689 -0.136425,-0.115755 -0.03305,-0.04961 -0.05926,-0.121267 -0.07855,-0.214974 -0.01655,-0.09371 -0.0248,-0.232889 -0.0248,-0.417546 v -2.501139 h 0.988055 v -0.41754 H 58.21914 V 27.53837 c 0,-0.20946 0.0082,-0.378959 0.0248,-0.508496 0.0193,-0.132289 0.04685,-0.242536 0.08268,-0.330729 0.0386,-0.0882 0.08406,-0.158477 0.136425,-0.21084 0.05236,-0.05237 0.108865,-0.09096 0.1695,-0.115755 0.06338,-0.0248 0.14056,-0.03721 0.23151,-0.03721 0.126775,0 0.22462,0.03445 0.29352,0.103353 0.07166,0.06615 0.13367,0.180525 0.186035,0.343131 h 0.40928 V 26.03355 c -0.15158,-0.0303 -0.33624,-0.04548 -0.55397,-0.04548 z m -47.231999,0.02041 -0.996322,0.04134 v 0.214974 c 0.14056,0.02481 0.237023,0.04962 0.289388,0.07441 0.05512,0.02481 0.09784,0.05788 0.128158,0.09922 0.03308,0.04134 0.05788,0.09922 0.07441,0.173632 0.01929,0.07166 0.03031,0.159853 0.03308,0.264584 0.0055,0.10473 0.0083,0.289388 0.0083,0.553971 v 3.460254 c 0,0.190169 -0.0069,0.329352 -0.02067,0.417545 -0.01378,0.0882 -0.03583,0.155718 -0.06615,0.202572 -0.02756,0.04683 -0.06752,0.08542 -0.119889,0.115755 -0.05237,0.03033 -0.139183,0.06202 -0.26045,0.09508 v 0.202571 h 1.63711 v -0.202571 c -0.118511,-0.03032 -0.206706,-0.06202 -0.264584,-0.09508 -0.05512,-0.03583 -0.09646,-0.07993 -0.124023,-0.132292 -0.02756,-0.05512 -0.04685,-0.122644 -0.05788,-0.202571 -0.0083,-0.07993 -0.0124,-0.213596 -0.0124,-0.401009 v -1.583366 c 0,-0.118509 0.02894,-0.230131 0.08682,-0.334863 0.06063,-0.10473 0.148828,-0.206709 0.264583,-0.305924 0.115755,-0.09922 0.21773,-0.168124 0.305925,-0.206707 0.08819,-0.03858 0.187413,-0.05788 0.297656,-0.05788 0.195681,0 0.347266,0.04823 0.454753,0.144694 0.110242,0.09646 0.183279,0.242535 0.219108,0.438216 0.03858,0.192924 0.05788,0.472665 0.05788,0.839226 v 1.083138 c 0,0.187413 -0.0096,0.327973 -0.02894,0.421679 -0.01653,0.09095 -0.04134,0.158475 -0.07441,0.202572 -0.03031,0.0441 -0.0689,0.07855 -0.115755,0.103353 -0.04686,0.02481 -0.124023,0.05375 -0.23151,0.08682 v 0.202572 h 1.628582 V 31.72183 c -0.162608,-0.0441 -0.271473,-0.08957 -0.326595,-0.136426 -0.05236,-0.0496 -0.08957,-0.117131 -0.111621,-0.202571 -0.01929,-0.08819 -0.02894,-0.25218 -0.02894,-0.49196 v -1.558561 c 0,-0.225997 -0.01378,-0.412032 -0.04134,-0.558106 -0.02756,-0.148827 -0.07028,-0.275606 -0.128157,-0.380338 -0.05512,-0.107487 -0.1279,-0.197061 -0.21885,-0.268718 -0.08819,-0.07441 -0.191547,-0.129535 -0.310058,-0.165364 -0.118511,-0.03582 -0.25356,-0.05374 -0.405144,-0.05374 -0.140559,0 -0.272852,0.02205 -0.396875,0.06615 -0.121267,0.04409 -0.245291,0.110244 -0.37207,0.198438 -0.124023,0.08544 -0.293523,0.237026 -0.508496,0.454752 l -0.01653,-0.0039 v -2.613018 z m 29.132846,2.65e-4 -1.000456,0.04134 v 0.214974 c 0.14056,0.02481 0.237023,0.04961 0.289388,0.07441 0.05512,0.02481 0.09784,0.05788 0.128159,0.09922 0.03307,0.04134 0.05788,0.09922 0.07441,0.173633 0.01929,0.07166 0.0303,0.159854 0.03307,0.264584 0.0055,0.10473 0.0083,0.289388 0.0083,0.553971 v 0.657325 c -0.157096,-0.06614 -0.31006,-0.112993 -0.458888,-0.14056 -0.148827,-0.03034 -0.314192,-0.04547 -0.496094,-0.04547 -0.338996,0 -0.644922,0.07717 -0.917773,0.23151 -0.270095,0.15434 -0.485069,0.389987 -0.644922,0.706933 -0.159852,0.314195 -0.239779,0.697291 -0.239779,1.149284 0,0.647678 0.122647,1.143772 0.367938,1.488282 0.24529,0.341753 0.593934,0.51263 1.045929,0.51263 0.165365,0 0.319706,-0.02756 0.463021,-0.08268 0.146073,-0.05512 0.282499,-0.128157 0.409279,-0.219108 0.129535,-0.09371 0.28112,-0.232888 0.454753,-0.417545 l 0.06201,0.01654 -0.04961,0.677995 h 0.248046 l 0.975651,-0.04134 v -0.214974 c -0.148826,-0.03032 -0.253558,-0.06202 -0.314192,-0.09509 -0.05788,-0.03582 -0.100597,-0.0813 -0.128156,-0.136425 -0.02756,-0.05512 -0.04548,-0.128158 -0.05374,-0.219108 -0.0083,-0.09371 -0.01239,-0.248047 -0.01239,-0.463021 v -4.787305 z m 46.409568,0 -0.99632,0.04134 v 0.214974 c 0.14056,0.02481 0.237025,0.04961 0.28939,0.07441 0.05514,0.02481 0.09786,0.05788 0.128155,0.09922 0.03305,0.04134 0.05788,0.09922 0.07442,0.173633 0.01935,0.07166 0.0304,0.159854 0.03305,0.264584 0.0055,0.10473 0.0082,0.289388 0.0082,0.553971 v 3.460254 c 0,0.148831 -0.0055,0.270096 -0.01655,0.363802 -0.0083,0.09095 -0.0248,0.163989 -0.0496,0.219108 -0.02205,0.05237 -0.06064,0.09784 -0.115755,0.136426 -0.05236,0.03859 -0.14745,0.07579 -0.285255,0.111621 v 0.202571 h 1.641245 v -0.202571 c -0.14056,-0.03583 -0.242535,-0.07717 -0.305925,-0.124024 -0.06064,-0.04961 -0.10199,-0.119889 -0.124025,-0.210839 -0.02205,-0.09371 -0.03305,-0.259071 -0.03305,-0.496094 V 26.008754 Z M 8.8291775,26.21546 c -0.501605,0 -0.9329325,0.121269 -1.293978,0.363802 -0.361045,0.242535 -0.635276,0.585668 -0.8226885,1.029394 -0.184657,0.44373 -0.276986,0.960497 -0.276986,1.550293 0,0.93982 0.1791455,1.646755 0.537435,2.120801 0.3582895,0.474043 0.887458,0.711068 1.5875,0.711068 0.3252165,0 0.6228735,-0.01792 0.8929685,-0.05374 0.272851,-0.03308 0.5388135,-0.08406 0.7978845,-0.152962 V 30.601755 H 9.8420355 c -0.088195,0.272851 -0.181901,0.479558 -0.28112,0.620117 -0.096462,0.14056 -0.216352,0.243913 -0.359668,0.310059 -0.1433155,0.06339 -0.327973,0.09509 -0.553971,0.09509 -0.2976555,0 -0.54846,-0.09646 -0.752409,-0.289388 -0.2039495,-0.19568 -0.35829,-0.483693 -0.463021,-0.86403 -0.1047305,-0.383097 -0.157096,-0.844738 -0.157096,-1.384929 0,-0.537433 0.06339,-0.994945 0.190169,-1.372526 0.1267795,-0.38034 0.300413,-0.664216 0.5208985,-0.851627 0.223242,-0.19017 0.476802,-0.285254 0.760677,-0.285254 0.190169,0 0.352778,0.03032 0.4878255,0.09095 0.1350475,0.06063 0.2535595,0.162607 0.355534,0.305924 0.1019745,0.14056 0.1860355,0.330732 0.252181,0.570508 h 0.4092775 v -1.14515 C 9.978462,26.329833 9.7359265,26.281602 9.5237085,26.256801 9.3114915,26.229236 9.07998,26.215461 8.8291775,26.215461 Z m 84.0710925,0 -1.72392,4.576465 c -0.10749,0.286629 -0.21911,0.507118 -0.334865,0.661458 -0.113,0.154347 -0.24667,0.243918 -0.40101,0.268717 v 0.202572 H 92.20574 V 31.7221 c -0.17363,-0.02481 -0.30317,-0.07579 -0.388605,-0.152962 -0.08268,-0.07717 -0.124025,-0.198439 -0.124025,-0.363801 0,-0.08544 0.01105,-0.180524 0.03305,-0.285254 0.02205,-0.10473 0.06891,-0.259071 0.14056,-0.463021 l 0.14056,-0.405143 h 1.926495 l 0.152965,0.5333 c 0.04135,0.135047 0.07305,0.257693 0.09508,0.367936 0.02205,0.107487 0.03305,0.208084 0.03305,0.301791 0,0.09922 -0.01655,0.179145 -0.0496,0.239778 -0.03305,0.05788 -0.08406,0.10336 -0.15296,0.136426 -0.06615,0.03307 -0.16812,0.06338 -0.305925,0.09095 v 0.202571 H 95.61221 V 31.7221 C 95.48819,31.69179 95.390345,31.64493 95.31869,31.58154 95.24703,31.51815 95.18502,31.429957 95.132655,31.316956 95.083055,31.203957 95.02517,31.03997 94.95902,30.824997 l -1.4056,-4.609538 z m -48.398076,0.06615 v 0.202571 c 0.126779,0.03581 0.216351,0.06889 0.268716,0.09922 0.05237,0.02756 0.09371,0.06615 0.124023,0.115755 0.03307,0.04686 0.0565,0.114378 0.07028,0.202572 0.01378,0.08544 0.02067,0.223242 0.02067,0.413411 v 3.576009 c 0,0.20395 -0.0096,0.355533 -0.02894,0.454753 -0.01654,0.09922 -0.05374,0.176387 -0.111622,0.23151 -0.05788,0.05236 -0.172255,0.100595 -0.343131,0.144694 v 0.202572 h 1.814876 V 31.7221 c -0.135048,-0.0303 -0.234266,-0.06062 -0.297657,-0.09095 -0.06339,-0.03307 -0.114377,-0.07717 -0.152961,-0.132292 -0.03583,-0.05788 -0.06339,-0.135047 -0.08268,-0.23151 -0.01654,-0.09646 -0.0248,-0.225999 -0.0248,-0.388607 v -1.372526 c 0.16812,0.01103 0.405143,0.01653 0.711068,0.01653 0.272849,0 0.533301,-0.03169 0.781346,-0.09508 0.248046,-0.06339 0.463022,-0.168119 0.644922,-0.314193 0.181901,-0.14607 0.322462,-0.333486 0.42168,-0.56224 0.09922,-0.228756 0.148828,-0.486449 0.148828,-0.773079 1e-6,-0.504359 -0.158475,-0.879189 -0.475422,-1.124479 -0.314193,-0.248047 -0.793751,-0.37207 -1.438672,-0.37207 z m 26.867611,0.07028 v 0.802018 H 72.13048 V 26.35189 Z m -24.994859,0.293522 c 0.181902,0 0.350023,0.02067 0.504362,0.06201 0.154341,0.03859 0.286633,0.106109 0.396876,0.202572 0.112999,0.09646 0.201194,0.224619 0.264583,0.384473 0.06339,0.157097 0.09509,0.35416 0.09509,0.591179 0,0.311437 -0.05374,0.562239 -0.161232,0.752408 -0.107485,0.187414 -0.263205,0.322464 -0.467153,0.405144 -0.201194,0.07993 -0.45751,0.119889 -0.768946,0.119889 h -0.479557 v -2.501139 c 0.137803,-0.01103 0.343132,-0.01654 0.615981,-0.01654 z M 23.9019,26.951332 c -0.03032,0.250804 -0.05926,0.442353 -0.08682,0.574642 -0.02756,0.129537 -0.06615,0.238402 -0.115755,0.326596 -0.04685,0.08544 -0.112999,0.155716 -0.198438,0.210839 -0.08544,0.0551 -0.197059,0.09369 -0.334863,0.115755 v 0.21084 h 0.611849 v 2.294434 c 0,0.44924 0.08682,0.779968 0.260449,0.992187 0.173632,0.20946 0.438217,0.314193 0.79375,0.314193 0.187413,0 0.367936,-0.04272 0.541569,-0.128158 0.176388,-0.08544 0.362425,-0.223241 0.558106,-0.413411 l -0.186036,-0.223242 c -0.09371,0.08544 -0.188791,0.151585 -0.285253,0.198438 -0.09646,0.0441 -0.199816,0.06615 -0.310059,0.06615 -0.121267,0 -0.220486,-0.01929 -0.297656,-0.05788 -0.07717,-0.03859 -0.146072,-0.101972 -0.206706,-0.190169 -0.06063,-0.09095 -0.101973,-0.214974 -0.124023,-0.372071 -0.02205,-0.159849 -0.03308,-0.373447 -0.03308,-0.640788 v -1.83968 h 1.335319 v -0.417546 h -1.335319 v -1.021126 z m 93.97256,0 c -0.0303,0.250804 -0.0593,0.442353 -0.0868,0.574642 -0.0275,0.129537 -0.0661,0.238402 -0.11575,0.326596 -0.0469,0.08544 -0.113,0.155716 -0.19844,0.210839 -0.0854,0.0551 -0.19706,0.09369 -0.33486,0.115755 v 0.21084 h 0.61185 v 2.294434 c 0,0.44924 0.0868,0.779968 0.26045,0.992187 0.17363,0.20946 0.43821,0.314193 0.79375,0.314193 0.18741,0 0.36793,-0.04272 0.54157,-0.128158 0.17638,-0.08544 0.36242,-0.223241 0.5581,-0.413411 l -0.18603,-0.223242 c -0.0937,0.08544 -0.18879,0.151585 -0.28526,0.198438 -0.0965,0.0441 -0.19982,0.06615 -0.31006,0.06615 -0.12126,0 -0.22048,-0.01929 -0.29765,-0.05788 -0.0772,-0.03859 -0.14607,-0.101972 -0.20671,-0.190169 -0.0606,-0.09095 -0.10199,-0.214974 -0.12403,-0.372071 -0.022,-0.159849 -0.0331,-0.373447 -0.0331,-0.640788 v -1.83968 h 1.33532 v -0.417546 h -1.33532 v -1.021126 z m 11.72435,0 c -0.0303,0.250804 -0.0593,0.442353 -0.0868,0.574642 -0.0275,0.129537 -0.0661,0.238402 -0.11576,0.326596 -0.0469,0.08544 -0.113,0.155716 -0.19843,0.210839 -0.0854,0.0551 -0.19706,0.09369 -0.33487,0.115755 v 0.21084 h 0.61185 v 2.294434 c 0,0.44924 0.0868,0.779968 0.26045,0.992187 0.17363,0.20946 0.43822,0.314193 0.79375,0.314193 0.18741,0 0.36794,-0.04272 0.54157,-0.128158 0.17639,-0.08544 0.36243,-0.223241 0.5581,-0.413411 l -0.18603,-0.223242 c -0.0937,0.08544 -0.18879,0.151585 -0.28525,0.198438 -0.0965,0.0441 -0.19982,0.06615 -0.31006,0.06615 -0.12127,0 -0.22049,-0.01929 -0.29766,-0.05788 -0.0772,-0.03859 -0.14607,-0.101972 -0.2067,-0.190169 -0.0607,-0.09095 -0.10199,-0.214974 -0.12402,-0.372071 -0.0221,-0.159849 -0.0331,-0.373447 -0.0331,-0.640788 v -1.83968 h 1.33532 v -0.417546 h -1.33532 v -1.021126 z m -36.537305,0.07441 0.78548,2.666504 h -1.72806 z m -75.410386,0.876433 c -0.1819,0 -0.361046,0.01929 -0.537434,0.05788 -0.176389,0.03583 -0.352779,0.08682 -0.529167,0.152962 -0.176389,0.06339 -0.396875,0.163984 -0.661458,0.301791 v 0.537435 h 0.541569 c 0.06615,-0.225997 0.163987,-0.395496 0.293522,-0.508496 0.132291,-0.112997 0.305925,-0.169499 0.520898,-0.169499 0.198437,0 0.356912,0.03858 0.475424,0.115755 0.118511,0.07717 0.205327,0.198439 0.260449,0.363802 0.05512,0.165363 0.08268,0.391362 0.08268,0.677995 v 0.268717 c -0.796505,0.03583 -1.394575,0.16399 -1.794206,0.384473 -0.396874,0.217731 -0.595312,0.527789 -0.595312,0.930176 0,0.192927 0.04272,0.363803 0.128157,0.51263 0.08544,0.14607 0.208085,0.260448 0.367937,0.343131 0.159852,0.07993 0.34451,0.11989 0.553971,0.11989 0.237022,0 0.460265,-0.05099 0.669727,-0.152962 0.212217,-0.101976 0.438216,-0.275609 0.677994,-0.520899 l 0.06201,0.01654 -0.02067,0.591178 h 1.132748 v -0.202571 c -0.121267,-0.03309 -0.209462,-0.06479 -0.264584,-0.09509 -0.05236,-0.03031 -0.09233,-0.06614 -0.119889,-0.107487 -0.02756,-0.04409 -0.04823,-0.101975 -0.06201,-0.173633 -0.01378,-0.07166 -0.02205,-0.148829 -0.0248,-0.23151 -0.0028,-0.08544 -0.0042,-0.230134 -0.0042,-0.434082 V 29.24163 c 0,-0.361046 -0.04134,-0.631142 -0.124023,-0.810286 -0.08268,-0.179147 -0.206706,-0.311439 -0.372071,-0.396875 -0.165364,-0.08819 -0.384473,-0.132292 -0.657324,-0.132292 z m 4.787305,0 c -0.190169,0 -0.361047,0.02894 -0.51263,0.08682 -0.148828,0.05788 -0.288011,0.14056 -0.417546,0.248047 -0.129535,0.10473 -0.270095,0.249425 -0.421679,0.434082 l -0.05788,-0.01239 0.04548,-0.72347 h -0.252181 l -0.967383,0.04134 v 0.214974 c 0.124023,0.02205 0.219108,0.04961 0.285254,0.08268 0.0689,0.03031 0.119889,0.07855 0.152962,0.144694 0.03308,0.06339 0.05236,0.148829 0.05788,0.256315 0.0055,0.107487 0.0083,0.249425 0.0083,0.425814 v 1.802474 c 0,0.192923 -0.0083,0.334861 -0.02481,0.425814 -0.01654,0.09095 -0.04134,0.158474 -0.07441,0.202572 -0.03307,0.0441 -0.07304,0.07855 -0.119889,0.103352 -0.04409,0.02482 -0.118512,0.05375 -0.223243,0.08682 v 0.202572 h 1.666049 v -0.202572 c -0.14056,-0.02481 -0.24667,-0.05926 -0.318327,-0.103352 -0.0689,-0.04409 -0.118512,-0.112999 -0.148828,-0.206706 -0.03031,-0.09646 -0.04547,-0.270095 -0.04547,-0.520899 v -1.44694 c 0,-0.132289 0.01654,-0.246668 0.04961,-0.343131 0.03583,-0.09646 0.09922,-0.199815 0.190169,-0.310059 0.09095,-0.110242 0.184658,-0.194303 0.28112,-0.252181 0.09922,-0.05788 0.198437,-0.08682 0.297656,-0.08682 0.129535,0 0.231511,0.03446 0.305925,0.103353 0.07441,0.06615 0.144694,0.173631 0.210839,0.322461 h 0.467155 V 27.92699 c -0.129535,-0.01654 -0.27423,-0.02481 -0.434082,-0.02481 z m 5.589323,0 c -0.355533,0 -0.669727,0.08544 -0.942578,0.256315 -0.272851,0.170877 -0.483692,0.413414 -0.63252,0.727604 -0.146072,0.314194 -0.219108,0.676619 -0.219108,1.087272 0,0.664214 0.144694,1.167199 0.434082,1.508952 0.289387,0.338998 0.717959,0.508496 1.28571,0.508496 0.212217,0 0.406521,-0.02894 0.58291,-0.08682 0.176389,-0.06063 0.337619,-0.143313 0.48369,-0.248047 0.148829,-0.10473 0.311438,-0.249424 0.487826,-0.434082 l -0.25218,-0.268717 c -0.179145,0.190167 -0.359669,0.327972 -0.54157,0.413411 -0.179144,0.08269 -0.381716,0.124024 -0.607714,0.124024 -0.267339,0 -0.48507,-0.06201 -0.65319,-0.186035 C 27.287741,31.177769 27.16785,31.004136 27.093437,30.783649 27.021777,30.56041 26.98595,30.286177 26.98595,29.960961 v -0.07441 h 2.604491 c -0.0083,-0.374826 -0.04547,-0.677995 -0.111619,-0.909505 -0.06339,-0.234267 -0.154341,-0.427193 -0.272852,-0.578777 -0.115755,-0.154339 -0.271474,-0.275608 -0.467156,-0.363802 -0.195681,-0.08819 -0.432704,-0.132291 -0.711067,-0.132291 z m 4.832781,0 c -0.19017,0 -0.361048,0.02894 -0.51263,0.08682 -0.148829,0.05788 -0.288011,0.14056 -0.417547,0.248047 -0.129535,0.10473 -0.270095,0.249425 -0.42168,0.434082 l -0.05788,-0.01239 0.04547,-0.72347 h -0.252182 l -0.967383,0.04134 v 0.214974 c 0.124023,0.02205 0.219109,0.04961 0.285256,0.08268 0.0689,0.03031 0.119888,0.07855 0.15296,0.144694 0.03308,0.06339 0.05237,0.148829 0.05788,0.256315 0.0055,0.107487 0.0083,0.249425 0.0083,0.425814 v 1.802474 c 0,0.192923 -0.0083,0.334861 -0.02481,0.425814 -0.01654,0.09095 -0.04134,0.158474 -0.07441,0.202572 -0.03308,0.0441 -0.07304,0.07855 -0.119888,0.103352 -0.0441,0.02482 -0.118513,0.05375 -0.223243,0.08682 v 0.202572 h 1.666047 v -0.202572 c -0.140558,-0.02481 -0.246668,-0.05926 -0.318325,-0.103352 -0.0689,-0.04409 -0.118512,-0.112999 -0.148828,-0.206706 -0.03031,-0.09646 -0.04547,-0.270095 -0.04547,-0.520899 v -1.44694 c 1e-6,-0.132289 0.01654,-0.246668 0.04961,-0.343131 0.03583,-0.09646 0.09922,-0.199815 0.190169,-0.310059 0.09095,-0.110242 0.184658,-0.194303 0.28112,-0.252181 0.09922,-0.05788 0.198439,-0.08682 0.297657,-0.08682 0.129536,0 0.231511,0.03446 0.305924,0.103353 0.07441,0.06615 0.144695,0.173631 0.210841,0.322461 H 33.29464 V 27.92699 c -0.129535,-0.01654 -0.274229,-0.02481 -0.434081,-0.02481 z m 2.67477,0 c -0.355532,0 -0.669726,0.08544 -0.942578,0.256315 -0.27285,0.170877 -0.483691,0.413414 -0.632518,0.727604 -0.146072,0.314194 -0.219109,0.676619 -0.219109,1.087272 0,0.664214 0.144695,1.167199 0.434083,1.508952 0.289387,0.338998 0.717959,0.508496 1.285708,0.508496 0.212219,0 0.406522,-0.02894 0.582912,-0.08682 0.176387,-0.06063 0.337619,-0.143313 0.48369,-0.248047 0.148828,-0.10473 0.311437,-0.249424 0.487825,-0.434082 l -0.252179,-0.268717 c -0.179146,0.190167 -0.359669,0.327972 -0.54157,0.413411 -0.179145,0.08269 -0.381718,0.124024 -0.607714,0.124024 -0.26734,0 -0.48507,-0.06201 -0.65319,-0.186035 -0.165365,-0.126779 -0.285255,-0.300412 -0.359669,-0.520899 -0.07166,-0.223239 -0.107487,-0.497472 -0.107487,-0.822688 v -0.07442 h 2.604492 c -0.0083,-0.374825 -0.04548,-0.677994 -0.11162,-0.909505 -0.06339,-0.234266 -0.154341,-0.427192 -0.272852,-0.578776 -0.115755,-0.154339 -0.271474,-0.275608 -0.467156,-0.363802 -0.19568,-0.08819 -0.432703,-0.132291 -0.711068,-0.132291 z m 16.201597,0 c -0.19017,0 -0.361045,0.02894 -0.51263,0.08682 -0.14883,0.05788 -0.28801,0.14056 -0.417545,0.248047 -0.129535,0.10473 -0.270095,0.249425 -0.42168,0.434082 l -0.05788,-0.01239 0.04545,-0.72347 h -0.25218 l -0.967383,0.04134 v 0.214974 c 0.124023,0.02205 0.219109,0.04961 0.285255,0.08268 0.0689,0.03031 0.119888,0.07855 0.152961,0.144694 0.03308,0.06339 0.05237,0.148829 0.05788,0.256315 0.0055,0.107487 0.0083,0.249425 0.0083,0.425814 v 1.802474 c 0,0.192923 -0.0083,0.334861 -0.02481,0.425814 -0.01654,0.09095 -0.04134,0.158474 -0.07442,0.202572 -0.03308,0.0441 -0.07303,0.07855 -0.119888,0.103352 -0.0441,0.02482 -0.118512,0.05375 -0.223242,0.08682 v 0.202572 h 1.666044 v -0.202572 c -0.140555,-0.02481 -0.246665,-0.05926 -0.318325,-0.103352 -0.0689,-0.04409 -0.11851,-0.112999 -0.148825,-0.206706 -0.0303,-0.09646 -0.0455,-0.270095 -0.0455,-0.520899 v -1.44694 c 5e-6,-0.132289 0.01655,-0.246668 0.0496,-0.343131 0.03585,-0.09646 0.09922,-0.199815 0.19017,-0.310059 0.09095,-0.110242 0.18466,-0.194303 0.28112,-0.252181 0.09922,-0.05788 0.19844,-0.08682 0.297655,-0.08682 0.129535,0 0.231515,0.03446 0.305925,0.103353 0.07442,0.06615 0.144695,0.173631 0.21084,0.322461 H 52.17092 V 27.92699 c -0.129535,-0.01654 -0.27423,-0.02481 -0.43408,-0.02481 z m 2.71611,0 c -0.352775,0 -0.66697,0.07717 -0.942575,0.23151 -0.275605,0.151584 -0.49334,0.384475 -0.65319,0.698665 -0.157095,0.314195 -0.235645,0.698666 -0.235645,1.153418 0,0.661457 0.150205,1.161688 0.45062,1.500684 0.303165,0.33624 0.741385,0.504362 1.314645,0.504362 0.38034,0 0.70969,-0.07717 0.988055,-0.23151 0.278365,-0.157096 0.49334,-0.392744 0.644925,-0.706934 0.15158,-0.314193 0.227375,-0.700045 0.227375,-1.157552 0,-0.642166 -0.151585,-1.134126 -0.454755,-1.475879 -0.30317,-0.344506 -0.749655,-0.516764 -1.339455,-0.516764 z m 6.91224,0 c -0.35553,0 -0.669725,0.08544 -0.942575,0.256315 -0.27285,0.170877 -0.483695,0.413414 -0.63252,0.727604 -0.14607,0.314194 -0.21911,0.676619 -0.21911,1.087272 0,0.664214 0.144695,1.167199 0.434085,1.508952 0.289385,0.338998 0.71796,0.508496 1.285705,0.508496 0.21222,0 0.406525,-0.02894 0.582915,-0.08682 0.176385,-0.06063 0.33762,-0.143313 0.48369,-0.248047 0.148825,-0.10473 0.311435,-0.249424 0.487825,-0.434082 l -0.25218,-0.268717 c -0.179145,0.190167 -0.35967,0.327972 -0.54157,0.413411 -0.179145,0.08269 -0.38172,0.124024 -0.607715,0.124024 -0.26734,0 -0.48507,-0.06201 -0.65319,-0.186035 C 60.62524,31.177776 60.50535,31.004143 60.430935,30.783656 60.35928,30.560417 60.32345,30.286184 60.32345,29.960968 v -0.07442 h 2.60449 c -0.0082,-0.374825 -0.0455,-0.677994 -0.11162,-0.909505 -0.06339,-0.234266 -0.15434,-0.427192 -0.27285,-0.578776 -0.115755,-0.154339 -0.271475,-0.275608 -0.467155,-0.363802 -0.19568,-0.08819 -0.432705,-0.132291 -0.71107,-0.13229 z m 3.910875,0 c -0.311435,0 -0.58291,0.0441 -0.81442,0.132291 -0.23151,0.08819 -0.40928,0.216353 -0.533305,0.384473 -0.121265,0.165367 -0.181895,0.361048 -0.1819,0.587045 0,0.184656 0.0427,0.344511 0.12816,0.479557 0.0882,0.135047 0.208085,0.25218 0.359665,0.3514 0.151585,0.09922 0.35278,0.201194 0.603585,0.305924 0.292145,0.124024 0.496095,0.223244 0.611845,0.297656 0.115755,0.07166 0.201195,0.151583 0.256315,0.239779 0.05512,0.08819 0.08268,0.202572 0.08268,0.343131 0,0.124024 -0.02205,0.227379 -0.06614,0.310059 -0.0441,0.08268 -0.103355,0.148828 -0.17777,0.198438 -0.07442,0.04687 -0.15985,0.08132 -0.256315,0.103352 -0.0937,0.0193 -0.19017,0.02894 -0.289385,0.02894 -0.256315,0 -0.45751,-0.0565 -0.60358,-0.169499 -0.146075,-0.115753 -0.25632,-0.300411 -0.33073,-0.553971 H 63.65968 v 0.86403 c 0.206705,0.05513 0.418925,0.09922 0.636655,0.132292 0.21773,0.03583 0.44235,0.05374 0.67386,0.05374 0.220485,0 0.42306,-0.02067 0.607715,-0.06201 0.187415,-0.04134 0.348645,-0.108865 0.48369,-0.202572 0.13505,-0.09371 0.23978,-0.214975 0.314195,-0.363802 0.07441,-0.148827 0.11162,-0.332106 0.11162,-0.549837 0,-0.187415 -0.0441,-0.348644 -0.13229,-0.483692 -0.08544,-0.135046 -0.20533,-0.253557 -0.35967,-0.355534 -0.151585,-0.101973 -0.367935,-0.213596 -0.649055,-0.334863 -0.278365,-0.118513 -0.47267,-0.213597 -0.58291,-0.285254 -0.110245,-0.07166 -0.19155,-0.148827 -0.243915,-0.23151 -0.05237,-0.08268 -0.07855,-0.187416 -0.07855,-0.314193 0,-0.179147 0.06477,-0.319707 0.1943,-0.42168 0.132295,-0.10473 0.30868,-0.157096 0.52917,-0.157096 0.151585,0 0.27974,0.01929 0.38447,0.05788 0.10473,0.03858 0.19844,0.106112 0.28112,0.202571 0.08268,0.09371 0.15434,0.223241 0.214975,0.388607 h 0.396875 v -0.843359 c -0.256315,-0.05237 -0.46991,-0.08682 -0.640785,-0.103353 -0.168125,-0.0193 -0.343135,-0.02894 -0.525035,-0.02894 z m 3.63802,0 c -0.311435,0 -0.58291,0.0441 -0.81442,0.132291 -0.23151,0.08819 -0.40928,0.216353 -0.5333,0.384473 -0.12127,0.165367 -0.181905,0.361048 -0.181905,0.587045 5e-6,0.184656 0.0427,0.344511 0.12816,0.479557 0.08819,0.135047 0.208085,0.25218 0.35967,0.3514 0.15158,0.09922 0.352775,0.201194 0.60358,0.305924 0.29214,0.124024 0.496095,0.223244 0.611845,0.297656 0.11576,0.07166 0.2012,0.151583 0.256315,0.239779 0.05512,0.08819 0.08268,0.202572 0.08268,0.343131 0,0.124024 -0.02205,0.227379 -0.06615,0.310059 -0.0441,0.08268 -0.103355,0.148828 -0.177765,0.198438 -0.07442,0.04687 -0.159855,0.08132 -0.256315,0.103352 -0.09371,0.0193 -0.190175,0.02894 -0.28939,0.02894 -0.25632,0 -0.45751,-0.0565 -0.60358,-0.169499 C 67.8875,31.378972 67.77726,31.194314 67.702845,30.940754 H 67.2977 v 0.86403 c 0.206705,0.05513 0.418925,0.09922 0.636655,0.132292 0.21773,0.03583 0.44235,0.05374 0.67386,0.05374 0.22049,0 0.42306,-0.02067 0.607715,-0.06201 0.187415,-0.04134 0.348645,-0.108865 0.48369,-0.202572 0.13505,-0.09371 0.23978,-0.214975 0.314195,-0.363802 0.07442,-0.148827 0.11162,-0.332106 0.11162,-0.549837 0,-0.187415 -0.0441,-0.348644 -0.13229,-0.483692 -0.08544,-0.135046 -0.20533,-0.253557 -0.35967,-0.355534 -0.15158,-0.101973 -0.367935,-0.213596 -0.649055,-0.334863 -0.278365,-0.118513 -0.472665,-0.213597 -0.58291,-0.285254 -0.110245,-0.07166 -0.191545,-0.148827 -0.24391,-0.23151 -0.05237,-0.08268 -0.07855,-0.187416 -0.07855,-0.314193 0,-0.179147 0.06477,-0.319707 0.194305,-0.42168 0.13229,-0.10473 0.308675,-0.157096 0.529165,-0.157096 0.15158,0 0.27974,0.01929 0.38447,0.05788 0.10473,0.03858 0.19844,0.106112 0.28112,0.202571 0.08268,0.09371 0.15434,0.223241 0.214975,0.388607 h 0.396875 v -0.843359 c -0.256315,-0.05237 -0.46991,-0.08682 -0.640785,-0.103353 -0.16812,-0.0193 -0.343135,-0.02894 -0.525035,-0.02894 z m 6.25078,0 c -0.352775,0 -0.66697,0.07717 -0.942575,0.23151 -0.27561,0.151584 -0.49334,0.384475 -0.653195,0.698665 -0.157095,0.314195 -0.23564,0.698666 -0.23564,1.153418 0,0.661457 0.150205,1.161688 0.450615,1.500684 0.30317,0.33624 0.74139,0.504362 1.31465,0.504362 0.380335,0 0.70969,-0.07717 0.988055,-0.23151 0.27836,-0.157096 0.49334,-0.392744 0.64492,-0.706934 0.15159,-0.314193 0.227375,-0.700045 0.227375,-1.157552 5e-6,-0.642166 -0.15158,-1.134126 -0.45475,-1.475879 -0.303165,-0.344502 -0.749655,-0.51676 -1.339455,-0.51676 z m 9.227345,0 c -0.1819,0 -0.36105,0.01929 -0.537435,0.05788 -0.17639,0.03583 -0.352775,0.08682 -0.529165,0.152962 -0.17639,0.06339 -0.396875,0.163984 -0.66146,0.301791 v 0.537435 h 0.54157 c 0.06614,-0.225997 0.163985,-0.395496 0.29352,-0.508496 0.13229,-0.112997 0.305925,-0.169499 0.5209,-0.169499 0.19844,0 0.356915,0.03858 0.475425,0.115755 0.11851,0.07717 0.205325,0.198439 0.260445,0.363802 0.05512,0.165363 0.08268,0.391362 0.08268,0.677995 v 0.268717 c -0.796505,0.03583 -1.394575,0.16399 -1.794205,0.384473 -0.39688,0.217731 -0.595315,0.527789 -0.595315,0.930176 0,0.192927 0.0427,0.363803 0.12816,0.51263 0.08544,0.14607 0.20808,0.260448 0.367935,0.343131 0.159855,0.07993 0.34451,0.11989 0.55397,0.11989 0.237025,0 0.46027,-0.05099 0.669725,-0.152962 0.21222,-0.101976 0.438215,-0.275609 0.677995,-0.520899 l 0.06202,0.01654 -0.02095,0.591178 h 1.132745 v -0.202571 c -0.121265,-0.03309 -0.20946,-0.06479 -0.26458,-0.09509 -0.05236,-0.03031 -0.09233,-0.06614 -0.11989,-0.107487 -0.02755,-0.04409 -0.04825,-0.101975 -0.06201,-0.173633 -0.01385,-0.07166 -0.02215,-0.148829 -0.0248,-0.23151 -0.0025,-0.08544 -0.004,-0.230134 -0.004,-0.434082 V 29.24163 c 0,-0.361046 -0.04135,-0.631142 -0.12402,-0.810286 -0.08268,-0.179147 -0.20671,-0.311439 -0.37207,-0.396875 -0.165365,-0.08819 -0.384475,-0.132292 -0.657325,-0.132292 z m 13.510285,0 c -0.3638,0 -0.684885,0.08544 -0.963245,0.256315 -0.278365,0.170877 -0.49472,0.414793 -0.64906,0.731738 -0.15434,0.314194 -0.23151,0.675242 -0.23151,1.083138 0,0.65319 0.137805,1.153421 0.41341,1.500684 0.27561,0.34451 0.67386,0.516764 1.19476,0.516764 0.14056,0 0.2701,-0.01378 0.38861,-0.04134 0.121265,-0.02481 0.242535,-0.06477 0.3638,-0.119889 0.124025,-0.05788 0.23978,-0.128156 0.347265,-0.21084 0.107485,-0.08544 0.23151,-0.205327 0.37207,-0.359668 l -0.235645,-0.272852 c -0.176385,0.187414 -0.34726,0.318329 -0.51263,0.392741 -0.162605,0.07442 -0.338995,0.111621 -0.529165,0.111621 -0.19568,0 -0.35967,-0.03858 -0.49196,-0.115755 -0.132295,-0.07717 -0.2384,-0.184656 -0.318325,-0.322461 -0.07993,-0.137807 -0.136435,-0.30317 -0.1695,-0.496094 -0.03305,-0.195679 -0.0496,-0.410654 -0.0496,-0.644922 0,-0.366556 0.0427,-0.676615 0.128155,-0.930176 0.0882,-0.253559 0.20671,-0.442353 0.355535,-0.566373 0.14883,-0.124024 0.319705,-0.186035 0.51263,-0.186035 0.13505,0 0.24805,0.02067 0.339,0.06201 0.09095,0.04134 0.170875,0.114378 0.23978,0.219108 0.0689,0.101977 0.12678,0.242537 0.17363,0.42168 h 0.525035 v -0.86403 c -0.192925,-0.05788 -0.385855,-0.09922 -0.578775,-0.124023 -0.19017,-0.02756 -0.398255,-0.04134 -0.624255,-0.04134 z m 3.73311,0 c -0.3638,0 -0.68489,0.08544 -0.96326,0.256315 -0.27836,0.170877 -0.49471,0.414793 -0.64905,0.731738 -0.15434,0.314194 -0.23151,0.675242 -0.23151,1.083138 0,0.65319 0.137805,1.153421 0.41341,1.500684 0.27561,0.34451 0.67387,0.516764 1.19476,0.516764 0.14056,0 0.27009,-0.01378 0.38861,-0.04134 0.12126,-0.02481 0.24253,-0.06477 0.3638,-0.119889 0.12402,-0.05788 0.23978,-0.128156 0.34726,-0.21084 0.10749,-0.08544 0.23151,-0.205327 0.37207,-0.359668 l -0.23564,-0.272852 c -0.17639,0.187414 -0.34727,0.318329 -0.51263,0.392741 -0.16261,0.07442 -0.339,0.111621 -0.52917,0.111621 -0.19568,0 -0.35966,-0.03858 -0.49196,-0.115755 -0.13229,-0.07717 -0.2384,-0.184656 -0.31832,-0.322461 -0.0799,-0.137807 -0.13644,-0.30317 -0.1695,-0.496094 -0.0331,-0.195679 -0.0496,-0.410654 -0.0496,-0.644922 0,-0.366556 0.0427,-0.676615 0.12816,-0.930176 0.0882,-0.253559 0.2067,-0.442353 0.35553,-0.566373 0.14883,-0.124024 0.31971,-0.186035 0.51263,-0.186035 0.13505,0 0.24805,0.02067 0.339,0.06201 0.091,0.04134 0.17088,0.114378 0.23978,0.219108 0.0689,0.101977 0.12678,0.242537 0.17363,0.42168 h 0.52503 v -0.86403 c -0.19292,-0.05788 -0.38585,-0.09922 -0.57878,-0.124023 -0.19016,-0.02756 -0.39825,-0.04134 -0.62425,-0.04134 z m 3.7207,0 c -0.35277,0 -0.66697,0.07717 -0.94258,0.23151 -0.27561,0.151584 -0.49334,0.384475 -0.65319,0.698665 -0.1571,0.314195 -0.23565,0.698666 -0.23565,1.153418 0,0.661457 0.15021,1.161688 0.45062,1.500684 0.30317,0.33624 0.74139,0.504362 1.31465,0.504362 0.38034,0 0.70969,-0.07717 0.98805,-0.23151 0.27837,-0.157096 0.49334,-0.392744 0.64493,-0.706934 0.15158,-0.314193 0.22737,-0.700045 0.22737,-1.157552 0,-0.642166 -0.15158,-1.134126 -0.45475,-1.475879 -0.30317,-0.344506 -0.74965,-0.516764 -1.33945,-0.516764 z m 16.76797,0 c -0.1819,0 -0.36105,0.01929 -0.53744,0.05788 -0.17639,0.03583 -0.35278,0.08682 -0.52917,0.152962 -0.17639,0.06339 -0.39687,0.163984 -0.66145,0.301791 v 0.537435 h 0.54156 c 0.0661,-0.225997 0.16399,-0.395496 0.29353,-0.508496 0.13229,-0.112997 0.30592,-0.169499 0.5209,-0.169499 0.19843,0 0.35691,0.03858 0.47542,0.115755 0.11851,0.07717 0.20533,0.198439 0.26045,0.363802 0.0551,0.165363 0.0827,0.391362 0.0827,0.677995 v 0.268717 c -0.7965,0.03583 -1.39458,0.16399 -1.7942,0.384473 -0.39688,0.217731 -0.59532,0.527789 -0.59532,0.930176 0,0.192927 0.0427,0.363803 0.12816,0.51263 0.0854,0.14607 0.20809,0.260448 0.36794,0.343131 0.15985,0.07993 0.34451,0.11989 0.55397,0.11989 0.23703,0 0.46027,-0.05099 0.66973,-0.152962 0.21222,-0.101976 0.43822,-0.275609 0.67799,-0.520899 l 0.062,0.01654 -0.0209,0.591178 h 1.13275 v -0.202571 c -0.12127,-0.03309 -0.20946,-0.06479 -0.26459,-0.09509 -0.0523,-0.03031 -0.0923,-0.06614 -0.11988,-0.107487 -0.0276,-0.04409 -0.0482,-0.101975 -0.062,-0.173633 -0.0138,-0.07166 -0.0221,-0.148829 -0.0248,-0.23151 -0.002,-0.08544 -0.004,-0.230134 -0.004,-0.434082 V 29.24163 c 0,-0.361046 -0.0414,-0.631142 -0.12402,-0.810286 -0.0827,-0.179147 -0.2067,-0.311439 -0.37207,-0.396875 -0.16536,-0.08819 -0.38447,-0.132292 -0.65732,-0.132292 z m -41.87445,0.0041 c -0.143315,0 -0.27974,0.02481 -0.409275,0.07441 -0.12678,0.04686 -0.25356,0.114375 -0.38034,0.202572 -0.12402,0.08819 -0.28801,0.235647 -0.49196,0.44235 l -0.05787,-0.01654 0.04545,-0.673861 H 78.7037 l -0.967385,0.0372 v 0.219108 c 0.124025,0.02205 0.21911,0.04961 0.285255,0.08268 0.06891,0.03032 0.119895,0.07855 0.15296,0.144695 0.0331,0.06339 0.05238,0.148828 0.05788,0.256315 0.0055,0.107487 0.0083,0.249424 0.0083,0.425814 v 1.802474 c 0,0.192923 -0.0097,0.33486 -0.02895,0.425813 -0.01655,0.09095 -0.04135,0.158475 -0.07442,0.202572 -0.0303,0.0441 -0.0689,0.07855 -0.115755,0.103353 -0.0441,0.02482 -0.11989,0.05375 -0.22738,0.08682 v 0.202572 H 79.41478 V 31.72205 c -0.14056,-0.03583 -0.242535,-0.07717 -0.305925,-0.124023 -0.06061,-0.04961 -0.101955,-0.11989 -0.124025,-0.21084 -0.02205,-0.09371 -0.03305,-0.259071 -0.03305,-0.496094 v -1.542025 c 0,-0.132289 0.0262,-0.249422 0.07855,-0.351399 0.05236,-0.101973 0.136425,-0.205329 0.25218,-0.310059 0.115755,-0.10473 0.22186,-0.177764 0.318325,-0.219108 0.09646,-0.0441 0.19844,-0.06615 0.305925,-0.06615 0.107485,0 0.194305,0.01241 0.26045,0.03721 0.06615,0.02205 0.124025,0.05374 0.17363,0.09508 0.05236,0.03859 0.09646,0.08682 0.132295,0.144694 0.0386,0.05512 0.07028,0.133671 0.09508,0.235644 0.02755,0.09922 0.04685,0.227377 0.05788,0.384473 0.01105,0.157096 0.01655,0.332106 0.01655,0.525033 v 1.083137 c 0,0.187414 -0.0097,0.327974 -0.02895,0.42168 -0.01655,0.09095 -0.04135,0.158475 -0.07442,0.202572 -0.0303,0.0441 -0.0689,0.07855 -0.115755,0.103352 -0.04685,0.02482 -0.124025,0.05375 -0.23151,0.08682 v 0.202572 h 1.62884 v -0.202572 c -0.129535,-0.03581 -0.220485,-0.06889 -0.27285,-0.09922 -0.05236,-0.03307 -0.09233,-0.07304 -0.11989,-0.119889 -0.02755,-0.04685 -0.04685,-0.113001 -0.05788,-0.198438 -0.01105,-0.08544 -0.01655,-0.223241 -0.01655,-0.413411 v -1.558561 c 0,-0.228754 -0.01515,-0.417543 -0.04545,-0.566374 -0.02755,-0.148827 -0.07027,-0.275609 -0.128155,-0.380339 -0.05788,-0.107487 -0.132295,-0.197057 -0.223245,-0.268717 -0.08819,-0.07166 -0.191545,-0.124029 -0.31006,-0.157097 -0.11575,-0.03582 -0.248045,-0.05374 -0.396875,-0.05374 z m 34.86712,0 c -0.14331,0 -0.27974,0.02481 -0.40928,0.07441 -0.12677,0.04686 -0.25355,0.114375 -0.38033,0.202572 -0.12403,0.08819 -0.28801,0.235647 -0.49196,0.44235 l -0.0579,-0.01654 0.0454,-0.673861 h -0.25218 l -0.96738,0.0372 v 0.219108 c 0.12402,0.02205 0.21911,0.04961 0.28525,0.08268 0.0689,0.03032 0.1199,0.07855 0.15297,0.144695 0.0331,0.06339 0.0524,0.148828 0.0579,0.256315 0.005,0.107487 0.008,0.249424 0.008,0.425814 v 1.802474 c 0,0.192923 -0.01,0.33486 -0.029,0.425813 -0.0165,0.09095 -0.0413,0.158475 -0.0744,0.202572 -0.0303,0.0441 -0.0689,0.07855 -0.11576,0.103353 -0.0441,0.02482 -0.11989,0.05375 -0.22737,0.08682 v 0.202572 h 1.62057 V 31.72205 c -0.14056,-0.03583 -0.24253,-0.07717 -0.30592,-0.124023 -0.0606,-0.04961 -0.10199,-0.11989 -0.12403,-0.21084 -0.0221,-0.09371 -0.0331,-0.259071 -0.0331,-0.496094 v -1.542025 c 1e-5,-0.132289 0.0262,-0.249422 0.0785,-0.351399 0.0524,-0.101973 0.13643,-0.205329 0.25218,-0.310059 0.11576,-0.10473 0.22187,-0.177764 0.31833,-0.219108 0.0965,-0.0441 0.19844,-0.06615 0.30593,-0.06615 0.10748,0 0.1943,0.01241 0.26044,0.03721 0.0662,0.02205 0.12403,0.05374 0.17364,0.09508 0.0524,0.03859 0.0965,0.08682 0.13229,0.144694 0.0386,0.05512 0.0703,0.133671 0.0951,0.235644 0.0276,0.09922 0.0469,0.227377 0.0579,0.384473 0.0111,0.157096 0.0166,0.332106 0.0166,0.525033 v 1.083137 c 0,0.187414 -0.01,0.327974 -0.029,0.42168 -0.0165,0.09095 -0.0413,0.158475 -0.0744,0.202572 -0.0303,0.0441 -0.0689,0.07855 -0.11576,0.103352 -0.0469,0.02482 -0.12402,0.05375 -0.23151,0.08682 v 0.202572 h 1.62884 v -0.202572 c -0.12953,-0.03581 -0.22048,-0.06889 -0.27285,-0.09922 -0.0524,-0.03307 -0.0923,-0.07304 -0.11989,-0.119889 -0.0275,-0.04685 -0.0468,-0.113001 -0.0579,-0.198438 -0.011,-0.08544 -0.0165,-0.223241 -0.0165,-0.413411 v -1.558561 c 0,-0.228754 -0.0152,-0.417543 -0.0455,-0.566374 -0.0276,-0.148827 -0.0703,-0.275609 -0.12816,-0.380339 -0.0579,-0.107487 -0.13229,-0.197057 -0.22324,-0.268717 -0.0882,-0.07166 -0.19155,-0.124029 -0.31006,-0.157097 -0.11576,-0.03582 -0.24805,-0.05374 -0.39687,-0.05374 z m 11.72435,0 c -0.14331,0 -0.27974,0.02481 -0.40928,0.07441 -0.12677,0.04686 -0.25355,0.114375 -0.38033,0.202572 -0.12403,0.08819 -0.28802,0.235647 -0.49196,0.44235 l -0.0579,-0.01654 0.0454,-0.673861 h -0.25218 l -0.96738,0.0372 v 0.219108 c 0.12402,0.02205 0.21911,0.04961 0.28525,0.08268 0.0689,0.03032 0.1199,0.07855 0.15296,0.144695 0.0331,0.06339 0.0524,0.148828 0.0579,0.256315 0.005,0.107487 0.008,0.249424 0.008,0.425814 v 1.802474 c 0,0.192923 -0.01,0.33486 -0.029,0.425813 -0.0165,0.09095 -0.0413,0.158475 -0.0744,0.202572 -0.0303,0.0441 -0.0689,0.07855 -0.11576,0.103353 -0.0441,0.02482 -0.11989,0.05375 -0.22737,0.08682 v 0.202572 h 1.62057 V 31.72205 c -0.14056,-0.03583 -0.24254,-0.07717 -0.30593,-0.124023 -0.0606,-0.04961 -0.10198,-0.11989 -0.12402,-0.21084 -0.0221,-0.09371 -0.0331,-0.259071 -0.0331,-0.496094 v -1.542025 c 0,-0.132289 0.0262,-0.249422 0.0785,-0.351399 0.0524,-0.101973 0.13643,-0.205329 0.25218,-0.310059 0.11576,-0.10473 0.22187,-0.177764 0.31833,-0.219108 0.0965,-0.0441 0.19844,-0.06615 0.30592,-0.06615 0.10749,0 0.19431,0.01241 0.26045,0.03721 0.0662,0.02205 0.12403,0.05374 0.17364,0.09508 0.0524,0.03859 0.0965,0.08682 0.13229,0.144694 0.0386,0.05512 0.0703,0.133671 0.0951,0.235644 0.0276,0.09922 0.0469,0.227377 0.0579,0.384473 0.0111,0.157096 0.0166,0.332106 0.0166,0.525033 v 1.083137 c 0,0.187414 -0.01,0.327974 -0.029,0.42168 -0.0165,0.09095 -0.0413,0.158475 -0.0744,0.202572 -0.0303,0.0441 -0.0689,0.07855 -0.11576,0.103352 -0.0469,0.02482 -0.12402,0.05375 -0.23151,0.08682 v 0.202572 h 1.62884 v -0.202572 c -0.12953,-0.03581 -0.22048,-0.06889 -0.27285,-0.09922 -0.0523,-0.03307 -0.0923,-0.07304 -0.11989,-0.119889 -0.0275,-0.04685 -0.0468,-0.113001 -0.0579,-0.198438 -0.011,-0.08544 -0.0165,-0.223241 -0.0165,-0.413411 v -1.558561 c 0,-0.228754 -0.0152,-0.417543 -0.0455,-0.566374 -0.0276,-0.148827 -0.0703,-0.275609 -0.12816,-0.380339 -0.0579,-0.107487 -0.13229,-0.197057 -0.22324,-0.268717 -0.0882,-0.07166 -0.19155,-0.124029 -0.31006,-0.157097 -0.11575,-0.03582 -0.24804,-0.05374 -0.39688,-0.05374 z m -54.987855,0.02894 -0.96325,0.0372 v 0.219108 c 0.124025,0.02205 0.21911,0.04961 0.285255,0.08268 0.06891,0.03032 0.119895,0.07855 0.15296,0.144694 0.0331,0.06339 0.05238,0.148828 0.05788,0.256315 0.0055,0.107487 0.0082,0.249424 0.0082,0.425814 V 30.9035 c 0,0.192924 -0.0096,0.334861 -0.02895,0.425814 -0.01655,0.09095 -0.04135,0.158475 -0.07442,0.202571 -0.0303,0.0441 -0.0689,0.07855 -0.115755,0.103353 -0.0441,0.02482 -0.11989,0.05375 -0.227375,0.08682 v 0.202571 h 1.62057 v -0.202571 c -0.14056,-0.03583 -0.242535,-0.07717 -0.305925,-0.124024 -0.06064,-0.04961 -0.101985,-0.119889 -0.12402,-0.21084 -0.02205,-0.09371 -0.03305,-0.25907 -0.03305,-0.496093 v -2.955914 z m 36.032945,0.0372 v 0.202571 c 0.17087,0.04409 0.28112,0.09233 0.33073,0.144694 0.0524,0.04961 0.0868,0.11851 0.10335,0.206706 0.0193,0.08544 0.0289,0.243915 0.0289,0.475423 v 1.562696 c 0,0.358286 0.04,0.636655 0.11988,0.835091 0.0799,0.195683 0.2012,0.343134 0.36381,0.44235 0.1626,0.09922 0.36931,0.148828 0.62011,0.148828 0.20946,0 0.41755,-0.05788 0.62426,-0.173632 0.20946,-0.115753 0.42857,-0.297656 0.65732,-0.545703 l 0.062,0.01653 -0.0248,0.677994 h 0.25218 l 0.94672,-0.04134 v -0.214974 c -0.14883,-0.03033 -0.25218,-0.06202 -0.31006,-0.09508 -0.0579,-0.03582 -0.10059,-0.0813 -0.12816,-0.136426 -0.0276,-0.05512 -0.0455,-0.129535 -0.0537,-0.223242 -0.008,-0.09371 -0.0124,-0.24667 -0.0124,-0.458887 v -2.8236 h -1.17822 v 0.202571 c 0.10748,0.02756 0.18465,0.05375 0.23151,0.07855 0.0496,0.02482 0.0868,0.05238 0.11162,0.08268 0.0275,0.03032 0.051,0.07028 0.0703,0.119889 0.0193,0.04686 0.0331,0.110242 0.0413,0.19017 0.008,0.07992 0.0124,0.198436 0.0124,0.355533 V 30.5521 c 0,0.135047 -0.0262,0.253558 -0.0785,0.355534 -0.0496,0.101973 -0.13367,0.205328 -0.25218,0.310058 -0.11851,0.101978 -0.226,0.173634 -0.32246,0.214975 -0.0965,0.04134 -0.19706,0.06201 -0.30179,0.06201 -0.15986,0 -0.28526,-0.02894 -0.37621,-0.08682 -0.091,-0.05788 -0.16123,-0.129533 -0.21084,-0.214974 -0.0496,-0.08544 -0.0868,-0.212218 -0.11162,-0.380338 -0.0248,-0.168121 -0.0372,-0.413412 -0.0372,-0.735873 V 27.972408 Z M 27.986406,28.22873 c 0.187412,0 0.338997,0.05099 0.454752,0.152962 0.115755,0.09922 0.202572,0.243916 0.260449,0.434082 0.05788,0.187414 0.09508,0.429948 0.111621,0.727604 H 27.00662 c 0.03031,-0.421679 0.129536,-0.74552 0.297657,-0.971517 0.170876,-0.228753 0.398253,-0.343131 0.682129,-0.343131 z m 7.507551,0 c 0.187413,0 0.338999,0.05099 0.454752,0.152962 0.115756,0.09922 0.202573,0.243916 0.260451,0.434082 0.05788,0.187414 0.09508,0.429948 0.11162,0.727604 h -1.806607 c 0.03032,-0.421679 0.129535,-0.74552 0.297656,-0.971517 0.170876,-0.228753 0.398254,-0.343131 0.682128,-0.343131 z m 18.942513,0 c 0.19844,0 0.37483,0.06339 0.529165,0.190169 0.154345,0.124024 0.27561,0.319704 0.363805,0.587044 0.09095,0.267341 0.136425,0.603585 0.136425,1.008724 0,0.217731 -0.0179,0.427193 -0.05374,0.628386 -0.0358,0.198437 -0.09509,0.37345 -0.177765,0.525032 -0.07993,0.151587 -0.184655,0.272853 -0.31419,0.363802 -0.12954,0.08819 -0.286635,0.132292 -0.47129,0.132292 -0.336245,0 -0.595315,-0.151585 -0.777215,-0.454752 -0.179145,-0.305924 -0.26872,-0.742761 -0.26872,-1.310515 0,-0.534676 0.0882,-0.946713 0.264585,-1.2361 0.179145,-0.289387 0.43546,-0.434082 0.768945,-0.434082 z m 6.887435,0 c 0.187415,0 0.339,0.05099 0.454755,0.152962 0.115755,0.09922 0.20257,0.243916 0.26045,0.434082 0.05787,0.187414 0.09508,0.429948 0.11162,0.727604 h -1.80661 c 0.0303,-0.421679 0.129535,-0.74552 0.29766,-0.971517 0.170875,-0.228753 0.39825,-0.343131 0.682125,-0.343131 z m 13.82448,0 c 0.198435,0 0.374825,0.06339 0.529165,0.190169 0.15434,0.124024 0.27561,0.319704 0.363805,0.587044 0.09095,0.267341 0.136425,0.603585 0.136425,1.008724 0,0.217731 -0.0179,0.427193 -0.05374,0.628386 -0.03585,0.198437 -0.09509,0.37345 -0.177765,0.525032 -0.07993,0.151587 -0.184655,0.272853 -0.314195,0.363802 -0.129535,0.08819 -0.28663,0.132292 -0.471285,0.132292 -0.336245,0 -0.595315,-0.151585 -0.777215,-0.454752 -0.179145,-0.305924 -0.26872,-0.742761 -0.26872,-1.310515 0,-0.534676 0.0882,-0.946713 0.264585,-1.2361 0.179145,-0.289387 0.43546,-0.434082 0.768945,-0.434082 z m 30.191435,0 c 0.19844,0 0.37483,0.06339 0.52917,0.190169 0.15434,0.124024 0.27561,0.319704 0.3638,0.587044 0.091,0.267341 0.13643,0.603585 0.13642,1.008724 0,0.217731 -0.0179,0.427193 -0.0537,0.628386 -0.0359,0.198437 -0.0951,0.37345 -0.17777,0.525032 -0.0799,0.151587 -0.18466,0.272853 -0.31419,0.363802 -0.12953,0.08819 -0.28663,0.132292 -0.47129,0.132292 -0.33624,0 -0.59531,-0.151585 -0.77721,-0.454752 -0.17915,-0.305924 -0.26872,-0.742761 -0.26872,-1.310515 0,-0.534676 0.0882,-0.946713 0.26459,-1.2361 0.17914,-0.289387 0.43545,-0.434082 0.76894,-0.434082 z m -65.604262,0.0041 c 0.129536,0 0.23978,0.01378 0.33073,0.04134 0.09371,0.02756 0.179145,0.07166 0.256315,0.132291 0.07717,0.06063 0.137804,0.135049 0.181901,0.223242 0.04685,0.0882 0.07993,0.197062 0.09922,0.326595 0.01929,0.129538 0.02894,0.301792 0.02894,0.516765 v 0.926042 c -10e-7,0.135047 -0.0096,0.245293 -0.02894,0.330729 -0.01929,0.08544 -0.04823,0.16123 -0.08681,0.227376 -0.03583,0.06614 -0.09371,0.139181 -0.173632,0.219108 -0.07993,0.07993 -0.158475,0.143317 -0.235646,0.190169 -0.07717,0.04412 -0.155718,0.07719 -0.235644,0.09922 -0.07993,0.0193 -0.180523,0.02894 -0.301791,0.02894 -0.308679,0 -0.538812,-0.137804 -0.690396,-0.413412 -0.151585,-0.275606 -0.227378,-0.677994 -0.227378,-1.207161 2e-6,-0.529163 0.09233,-0.93431 0.276987,-1.21543 0.184656,-0.283877 0.453374,-0.425814 0.806151,-0.425813 z m -21.637954,1.806615 v 0.58291 c 0,0.137805 -0.04272,0.276985 -0.128158,0.417545 -0.08544,0.14056 -0.205328,0.256317 -0.359668,0.347266 -0.151584,0.09095 -0.321083,0.136426 -0.508496,0.136426 -0.132291,0 -0.246669,-0.01654 -0.343132,-0.04961 -0.09646,-0.03583 -0.176389,-0.09922 -0.239778,-0.190169 -0.06339,-0.09095 -0.09509,-0.214977 -0.09509,-0.372071 0,-0.289389 0.139183,-0.505742 0.417546,-0.649056 0.278363,-0.14333 0.697288,-0.217741 1.256771,-0.223242 z m 66.741146,0 v 0.58291 c 0,0.137805 -0.0427,0.276985 -0.12816,0.417545 -0.08544,0.14056 -0.205325,0.256317 -0.359665,0.347266 -0.151585,0.09095 -0.321085,0.136426 -0.508495,0.136426 -0.13229,0 -0.24667,-0.01654 -0.343135,-0.04961 -0.09647,-0.03583 -0.17639,-0.09922 -0.23978,-0.190169 -0.06338,-0.09095 -0.09508,-0.214977 -0.09508,-0.372071 0,-0.289389 0.13918,-0.505742 0.417545,-0.649056 0.27836,-0.14333 0.697285,-0.217741 1.25677,-0.223242 z m 37.73206,0 v 0.58291 c 0,0.137805 -0.0427,0.276985 -0.12816,0.417545 -0.0854,0.14056 -0.20533,0.256317 -0.35966,0.347266 -0.15159,0.09095 -0.32109,0.136426 -0.5085,0.136426 -0.1323,0 -0.24667,-0.01654 -0.34313,-0.04961 -0.0965,-0.03583 -0.17639,-0.09922 -0.23978,-0.190169 -0.0634,-0.09095 -0.0951,-0.214977 -0.0951,-0.372071 0,-0.289389 0.13919,-0.505742 0.41755,-0.649056 0.27836,-0.14333 0.69729,-0.217741 1.25677,-0.223242 z" />
  </g>
</svg>
