<?xml version="1.0" encoding="UTF-8" standalone="no"?>
<!-- Created with Inkscape (http://www.inkscape.org/) -->

<svg
   width="60"
   height="60"
   viewBox="0 0 15.875 15.875001"
   version="1.1"
   id="svg5"
   inkscape:version="1.1.2 (b8e25be833, 2022-02-05)"
   sodipodi:docname="TNG-gray.svg"
   xmlns:inkscape="http://www.inkscape.org/namespaces/inkscape"
   xmlns:sodipodi="http://sodipodi.sourceforge.net/DTD/sodipodi-0.dtd"
   xmlns="http://www.w3.org/2000/svg"
   xmlns:svg="http://www.w3.org/2000/svg">
  <sodipodi:namedview
     id="namedview7"
     pagecolor="#ffffff"
     bordercolor="#666666"
     borderopacity="1.0"
     inkscape:pageshadow="2"
     inkscape:pageopacity="0.0"
     inkscape:pagecheckerboard="0"
     inkscape:document-units="mm"
     showgrid="false"
     units="px"
     width="120px"
     inkscape:zoom="10"
     inkscape:cx="90.1"
     inkscape:cy="30.8"
     inkscape:window-width="3840"
     inkscape:window-height="2120"
     inkscape:window-x="-12"
     inkscape:window-y="-12"
     inkscape:window-maximized="1"
     inkscape:current-layer="layer1"
     showguides="true"
     inkscape:guide-bbox="true"
     fit-margin-top="0"
     fit-margin-left="0"
     fit-margin-right="0"
     fit-margin-bottom="0">
    <sodipodi:guide
       position="-22.833575,107.23081"
       orientation="0,1"
       id="guide34315"
       inkscape:label=""
       inkscape:locked="false"
       inkscape:color="rgb(0,0,255)" />
    <sodipodi:guide
       position="-9.3430408,98.717371"
       orientation="0,-1"
       id="guide34397" />
    <sodipodi:guide
       position="-3.9324567,92.650301"
       orientation="0,-1"
       id="guide37219" />
  </sodipodi:namedview>
  <defs
     id="defs2" />
  <g
     inkscape:label="Layer 1"
     inkscape:groupmode="layer"
     id="layer1"
     transform="translate(-28.895894,-28.89901)">
    <rect
       style="fill:#ffffff;fill-opacity:0;stroke:#000000;stroke-width:0;paint-order:stroke fill markers;stop-color:#000000"
       id="rect1041"
       width="24.92445"
       height="22.700218"
       x="1.8971366"
       y="1.4392071"
       inkscape:export-filename="K:\Side Projects\Logo Design\Account-logo-project\Favicon\icon-512.png"
       inkscape:export-xdpi="96"
       inkscape:export-ydpi="96" />
    <path
       style="fill:#003453;fill-opacity:1;stroke:#fffff0;stroke-width:0;stroke-miterlimit:4;stroke-dasharray:none;stroke-opacity:1;paint-order:stroke fill markers;stop-color:#000000"
       d="m 68.659851,31.900038 c -0.442855,-0.05684 -0.822375,-0.32574 -1.022346,-0.724356 -0.04476,-0.08922 -0.08683,-0.211412 -0.112147,-0.325736 l -0.02111,-0.09534 v -6.774569 c 0,-6.494373 7e-4,-6.778003 0.01689,-6.857604 0.05529,-0.271753 0.17896,-0.505152 0.367298,-0.693192 0.181941,-0.181652 0.402696,-0.302047 0.664119,-0.362195 l 0.09326,-0.02146 3.693731,-0.0027 3.69373,-0.0027 v 4.29974 c 0,2.364847 -0.0016,4.299721 -0.0035,4.299721 -0.0019,0 -0.348232,-0.627397 -0.769518,-1.394214 l -0.765971,-1.394215 h -0.400124 -0.400125 v 5.029463 5.029462 l -2.48666,-0.0012 c -1.367663,-7e-4 -2.514029,-0.0047 -2.547481,-0.009 z m 2.582571,-7.508282 v -1.707678 h 0.664357 0.664356 v -0.416393 -0.416393 h -1.876106 -1.876107 v 0.416393 0.416393 h 0.664357 0.664357 v 1.707678 1.707677 h 0.547393 0.547393 z"
       id="path35491"
       inkscape:export-filename="K:\Side Projects\Logo Design\Account-logo-project\Favicon\icon-512.png"
       inkscape:export-xdpi="96.000023"
       inkscape:export-ydpi="96.000023" />
    <path
       style="fill:#003453;fill-opacity:1;stroke:#fffff0;stroke-width:0;stroke-miterlimit:4;stroke-dasharray:none;stroke-opacity:1;paint-order:stroke fill markers;stop-color:#000000"
       d="m 68.949922,31.895808 c -0.349172,-0.0058 -0.362983,-0.0067 -0.449142,-0.03021 -0.254218,-0.0694 -0.45836,-0.190473 -0.633926,-0.37598 -0.173148,-0.182956 -0.274556,-0.378083 -0.33927,-0.652811 l -0.01921,-0.08156 0.0029,-6.800619 0.0029,-6.800621 0.02013,-0.07486 c 0.07479,-0.278129 0.178543,-0.463025 0.362293,-0.645644 0.179758,-0.178652 0.362761,-0.282304 0.63189,-0.357901 l 0.08925,-0.02507 3.709233,-0.0029 3.709233,-0.0029 -0.0068,4.278616 c -0.0037,2.353239 -0.008,4.279865 -0.0096,4.281392 -0.0035,0.0035 -0.05255,-0.08497 -0.658175,-1.186174 -0.270301,-0.491484 -0.574856,-1.045193 -0.676788,-1.230464 l -0.185333,-0.336857 -0.402787,-0.0024 -0.402788,-0.0024 v 5.029562 5.029561 l -2.19191,-0.0019 c -1.20555,-0.0011 -2.354022,-0.0046 -2.55216,-0.0078 z m 2.2925,-7.499373 v -1.707679 h 0.664357 0.664356 v -0.421071 -0.421071 h -1.876106 -1.876107 v 0.421071 0.421071 h 0.664357 0.664357 v 1.707679 1.707677 h 0.547393 0.547393 z"
       id="path35828"
       inkscape:export-filename="K:\Side Projects\Logo Design\Account-logo-project\Favicon\icon-512.png"
       inkscape:export-xdpi="96.000023"
       inkscape:export-ydpi="96.000023" />
    <path
       style="fill:#003453;fill-opacity:1;stroke:none;stroke-width:0;stroke-miterlimit:4;stroke-dasharray:none;stroke-opacity:1;paint-order:stroke fill markers;stop-color:#000000"
       d="m 74.489472,27.613126 1.29e-4,-4.30212 0.09579,0.174208 c 0.05268,0.09582 0.398958,0.726292 0.769501,1.401059 l 0.673713,1.226851 0.400019,1.29e-4 0.400017,1.29e-4 v -5.034163 -5.034251 l 2.711232,0.0027 c 2.553225,0.0025 2.715184,0.0037 2.779054,0.01921 0.12294,0.02992 0.211404,0.06226 0.325177,0.118864 0.392214,0.195133 0.66617,0.587575 0.715455,1.024887 0.0077,0.06816 0.0097,1.896561 0.0076,6.825556 l -0.0029,6.732462 -0.0198,0.08421 c -0.06343,0.269762 -0.167423,0.464831 -0.347141,0.651201 -0.197281,0.204583 -0.426182,0.32718 -0.727573,0.389686 -0.06889,0.01428 -0.38222,0.01576 -3.927659,0.01851 l -3.852803,0.003 z m 5.838601,-1.541295 c 0.381081,-0.06568 0.744668,-0.232126 1.030862,-0.471924 0.09316,-0.07806 0.279269,-0.268727 0.279269,-0.286112 0,-0.01121 -0.662009,-0.6755 -0.666688,-0.668982 -0.08466,0.117942 -0.211711,0.243843 -0.316094,0.313236 -0.21615,0.143697 -0.446352,0.208072 -0.709719,0.19847 -0.262158,-0.0096 -0.485093,-0.09333 -0.69725,-0.262008 -0.189255,-0.150468 -0.345369,-0.390671 -0.398209,-0.612701 l -0.0117,-0.04913 h -0.471601 -0.471604 v 0.0276 c 0,0.0472 0.03725,0.223362 0.07017,0.331886 0.105933,0.349152 0.286047,0.643528 0.55338,0.904442 0.3345,0.326465 0.764137,0.531155 1.233839,0.587831 0.112044,0.01352 0.469135,0.0057 0.575333,-0.01261 z m -1.465664,-2.440343 c 0.113419,-0.373712 0.406725,-0.669001 0.782382,-0.787671 0.238209,-0.07525 0.536149,-0.06647 0.76593,0.02257 0.225003,0.08719 0.394854,0.22035 0.560631,0.43953 0.0049,0.0064 0.666852,-0.657661 0.666852,-0.668982 0,-0.01751 -0.186451,-0.208348 -0.279269,-0.28584 -0.265435,-0.221605 -0.605489,-0.385678 -0.93716,-0.452173 -0.32809,-0.06578 -0.667968,-0.05493 -0.988248,0.03155 -0.792185,0.213885 -1.404921,0.894547 -1.531268,1.701024 l -0.01356,0.08655 h 0.473721 0.473722 z"
       id="path35789"
       inkscape:export-filename="K:\Side Projects\Logo Design\Account-logo-project\Favicon\icon-512.png"
       inkscape:export-xdpi="96.000023"
       inkscape:export-ydpi="96.000023" />
    <path
       d="m 72.563244,22.677852 h -1.322266 v 3.415146 H 70.149041 V 22.677852 H 68.826773 V 21.8589 h 3.736471 z"
       id="path36373"
       style="font-weight:bold;font-size:11.6452px;line-height:1.25;-inkscape-font-specification:'sans-serif, Bold';fill:#ffffff;stroke-width:0" />
    <path
       id="path36639"
       style="fill:#ffffff;fill-opacity:1;stroke:none;stroke-width:0;stroke-miterlimit:4;stroke-dasharray:none;stroke-opacity:1;paint-order:stroke fill markers;stop-color:#000000"
       d="M 79.997264,21.865878 A 2.1170528,2.1170528 0 0 0 77.89701,23.7183 h 0.939131 a 1.1908421,1.1908421 0 0 1 0,-2.58e-4 1.1908421,1.1908421 0 0 1 0.023,-0.08606 1.1908421,1.1908421 0 0 1 0.02946,-0.08399 1.1908421,1.1908421 0 0 1 0.03566,-0.08166 1.1908421,1.1908421 0 0 1 0.04161,-0.07882 1.1908421,1.1908421 0 0 1 0.04729,-0.07546 1.1908421,1.1908421 0 0 1 0.05298,-0.07158 1.1908421,1.1908421 0 0 1 0.05815,-0.06745 1.1908421,1.1908421 0 0 1 0.0628,-0.06306 1.1908421,1.1908421 0 0 1 0.06771,-0.05815 1.1908421,1.1908421 0 0 1 0.07158,-0.05272 1.1908421,1.1908421 0 0 1 0.07546,-0.04755 1.1908421,1.1908421 0 0 1 0.07856,-0.04161 1.1908421,1.1908421 0 0 1 0.08166,-0.03541 1.1908421,1.1908421 0 0 1 0.08399,-0.02946 1.1908421,1.1908421 0 0 1 0.08606,-0.023 1.1908421,1.1908421 0 0 1 0.08761,-0.01654 1.1908421,1.1908421 0 0 1 0.08838,-0.01008 1.1908421,1.1908421 0 0 1 0.08916,-0.0033 1.1908421,1.1908421 0 0 1 0.0305,5e-4 1.1908421,1.1908421 0 0 1 0.03075,0.0011 1.1908421,1.1908421 0 0 1 0.0305,0.0021 1.1908421,1.1908421 0 0 1 0.0305,0.0026 1.1908421,1.1908421 0 0 1 0.0305,0.0036 1.1908421,1.1908421 0 0 1 0.0305,0.0044 1.1908421,1.1908421 0 0 1 0.03024,0.0052 1.1908421,1.1908421 0 0 1 0.02998,0.0057 1.1908421,1.1908421 0 0 1 0.02998,0.0067 1.1908421,1.1908421 0 0 1 0.02972,0.0075 1.1908421,1.1908421 0 0 1 0.02946,0.0083 1.1908421,1.1908421 0 0 1 0.02946,0.0088 1.1908421,1.1908421 0 0 1 0.0292,0.0098 1.1908421,1.1908421 0 0 1 0.02869,0.01034 1.1908421,1.1908421 0 0 1 0.02869,0.01137 1.1908421,1.1908421 0 0 1 0.02817,0.01189 1.1908421,1.1908421 0 0 1 0.02791,0.01266 1.1908421,1.1908421 0 0 1 0.02765,0.01318 1.1908421,1.1908421 0 0 1 0.02714,0.01421 1.1908421,1.1908421 0 0 1 0.02687,0.01473 1.1908421,1.1908421 0 0 1 0.02662,0.01551 1.1908421,1.1908421 0 0 1 0.02611,0.01602 1.1908421,1.1908421 0 0 1 0.02558,0.0168 1.1908421,1.1908421 0 0 1 0.02532,0.01731 1.1908421,1.1908421 0 0 1 0.02455,0.01809 1.1908421,1.1908421 0 0 1 0.0243,0.01886 1.1908421,1.1908421 0 0 1 0.02377,0.01938 1.1908421,1.1908421 0 0 1 0.02352,0.0199 1.1908421,1.1908421 0 0 1 0.02274,0.02042 1.1908421,1.1908421 0 0 1 0.02222,0.02119 1.1908421,1.1908421 0 0 1 0.02171,0.02171 1.1908421,1.1908421 0 0 1 0.0067,0.0072 l 0.531072,-0.771672 a 2.1170528,2.1170528 0 0 0 -1.390607,-0.52152 z m 1.187225,2.024018 a 1.1908421,1.1908421 0 0 1 0,2.58e-4 1.1908421,1.1908421 0 0 1 0,2.58e-4 h -1.11383 v 0.793895 h 0.887963 a 1.1908421,1.1908421 0 0 1 -0.0305,0.04109 1.1908421,1.1908421 0 0 1 -0.05789,0.06745 1.1908421,1.1908421 0 0 1 -0.06306,0.06306 1.1908421,1.1908421 0 0 1 -0.06745,0.05815 1.1908421,1.1908421 0 0 1 -0.07184,0.05272 1.1908421,1.1908421 0 0 1 -0.0752,0.04755 1.1908421,1.1908421 0 0 1 -0.07882,0.04161 1.1908421,1.1908421 0 0 1 -0.08166,0.03566 1.1908421,1.1908421 0 0 1 -0.08399,0.02921 1.1908421,1.1908421 0 0 1 -0.08606,0.02326 1.1908421,1.1908421 0 0 1 -0.08761,0.01654 1.1908421,1.1908421 0 0 1 -0.08838,0.0098 1.1908421,1.1908421 0 0 1 -0.0889,0.0034 1.1908421,1.1908421 0 0 1 -0.08916,-0.0034 1.1908421,1.1908421 0 0 1 -0.08838,-0.0098 1.1908421,1.1908421 0 0 1 -0.08761,-0.01654 1.1908421,1.1908421 0 0 1 -0.08606,-0.02326 1.1908421,1.1908421 0 0 1 -0.08399,-0.02921 1.1908421,1.1908421 0 0 1 -0.08166,-0.03566 1.1908421,1.1908421 0 0 1 -0.07856,-0.04161 1.1908421,1.1908421 0 0 1 -0.07546,-0.04755 1.1908421,1.1908421 0 0 1 -0.07158,-0.05272 1.1908421,1.1908421 0 0 1 -0.06771,-0.05815 1.1908421,1.1908421 0 0 1 -0.0628,-0.06306 1.1908421,1.1908421 0 0 1 -0.05815,-0.06745 1.1908421,1.1908421 0 0 1 -0.05298,-0.07158 1.1908421,1.1908421 0 0 1 -0.04729,-0.07546 1.1908421,1.1908421 0 0 1 -0.04161,-0.07882 1.1908421,1.1908421 0 0 1 -0.03566,-0.08141 1.1908421,1.1908421 0 0 1 -0.02946,-0.08425 1.1908421,1.1908421 0 0 1 -0.023,-0.08606 1.1908421,1.1908421 0 0 1 0,-2.58e-4 H 77.89701 a 2.1170528,2.1170528 0 0 0 2.100254,1.852422 2.1170528,2.1170528 0 0 0 2.117054,-2.117053 2.1170528,2.1170528 0 0 0 -0.0024,-0.09304 z"
       inkscape:export-filename="K:\Side Projects\Logo Design\Account-logo-project\Favicon\icon-512.png"
       inkscape:export-xdpi="96.000023"
       inkscape:export-ydpi="96.000023" />
    <path
       style="fill:#7ba03b;fill-opacity:1;stroke:none;stroke-width:0;stroke-miterlimit:4;stroke-dasharray:none;stroke-opacity:1;paint-order:stroke fill markers;stop-color:#000000"
       d="m 68.949922,31.89606 c -0.35102,-0.0055 -0.362527,-0.0063 -0.449142,-0.03022 -0.25583,-0.07059 -0.458531,-0.190894 -0.633926,-0.376222 -0.173148,-0.182956 -0.274556,-0.378082 -0.33927,-0.652809 l -0.01921,-0.08156 0.0028,-6.8053 0.0028,-6.8053 0.03051,-0.105862 c 0.142059,-0.492949 0.478263,-0.822378 0.983147,-0.963333 l 0.09004,-0.02514 3.707767,-0.0028 3.707765,-0.0028 -0.0014,2.393292 c -8e-4,1.31631 -0.0039,3.243856 -0.007,4.283434 l -0.0056,1.890141 -0.178614,-0.32282 c -0.09821,-0.177481 -0.440761,-0.799614 -0.761204,-1.382447 l -0.582621,-1.059696 h -0.401388 -0.401388 v 5.029463 5.029461 l -2.19191,-0.0019 c -1.205551,-0.0011 -2.354023,-0.0045 -2.55216,-0.0076 z m 2.2925,-7.499625 v -1.707679 h 0.664357 0.664356 v -0.421071 -0.421071 h -1.876106 -1.876107 v 0.421071 0.421071 h 0.664357 0.664357 v 1.707679 1.707677 h 0.547393 0.547393 z"
       id="path35867"
       inkscape:export-filename="K:\Side Projects\Logo Design\Account-logo-project\Favicon\icon-512.png"
       inkscape:export-xdpi="96.000023"
       inkscape:export-ydpi="96.000023" />
    <path
       style="fill:#f3f3f3;fill-opacity:1;stroke:#fffff0;stroke-width:0;stroke-miterlimit:4;stroke-dasharray:none;stroke-opacity:1;paint-order:stroke fill markers;stop-color:#000000"
       d="m 30.057045,44.758845 c -0.442855,-0.05684 -0.822375,-0.32574 -1.022346,-0.724356 -0.04476,-0.08922 -0.08683,-0.211412 -0.112147,-0.325736 l -0.02111,-0.09534 v -6.774569 c 0,-6.494373 7e-4,-6.778003 0.01689,-6.857604 0.05529,-0.271753 0.17896,-0.505152 0.367298,-0.693192 0.181941,-0.181652 0.402696,-0.302047 0.664119,-0.362195 l 0.09326,-0.02146 3.693731,-0.0027 3.69373,-0.0027 v 4.29974 c 0,2.364847 -0.0016,4.299721 -0.0035,4.299721 -0.0019,0 -0.348232,-0.627397 -0.769518,-1.394214 l -0.765971,-1.394215 h -0.400124 -0.400125 v 5.029463 5.029462 l -2.48666,-0.0012 c -1.367663,-7e-4 -2.514029,-0.0047 -2.547481,-0.009 z m 2.582571,-7.508282 v -1.707678 h 0.664357 0.664356 v -0.416393 -0.416393 h -1.876106 -1.876107 v 0.416393 0.416393 h 0.664357 0.664357 v 1.707678 1.707677 h 0.547393 0.547393 z"
       id="path38440"
       inkscape:export-filename="K:\Side Projects\Logo Design\Account-logo-project\Favicon\icon-512.png"
       inkscape:export-xdpi="96.000023"
       inkscape:export-ydpi="96.000023" />
    <path
       id="path38444"
       style="fill:#f3f3f3;fill-opacity:1;stroke:none;stroke-width:0;stroke-miterlimit:4;stroke-dasharray:none;stroke-opacity:1;paint-order:stroke fill markers;stop-color:#000000"
       d="m 38.225968,28.903678 v 5.034318 5.034318 h -0.399976 l -0.399976,-5.29e-4 -0.67386,-1.226799 C 36.381613,37.070232 36.035374,36.43987 35.982694,36.344051 l -0.09612,-0.17415 v 4.302063 4.302063 l 3.852478,-0.0031 c 3.545439,-0.0027 3.859035,-0.0043 3.927925,-0.0186 0.301391,-0.06251 0.530323,-0.185057 0.727604,-0.38964 0.179718,-0.18637 0.283836,-0.381361 0.347266,-0.651123 l 0.01964,-0.08423 0.0031,-6.732406 c 0.0021,-4.928995 -5.2e-5,-6.757263 -0.0078,-6.825423 -0.04929,-0.437312 -0.323504,-0.82961 -0.715718,-1.024743 -0.113773,-0.0566 -0.202105,-0.08894 -0.325045,-0.118856 -0.06387,-0.01551 -0.225934,-0.01714 -2.779159,-0.01964 z m 3.158463,5.811531 c 0.145424,-4.76e-4 0.29106,0.0136 0.434599,0.04237 0.331671,0.06649 0.671459,0.230564 0.936894,0.452169 0.09282,0.07749 0.279569,0.26826 0.279569,0.285771 0,0.01132 -0.662242,0.675609 -0.667142,0.669209 -0.164128,-0.216999 -0.33229,-0.34995 -0.553972,-0.437182 a 1.1908421,1.1908421 0 0 0 -0.0067,-0.0026 c -0.0072,-0.0028 -0.01439,-0.0051 -0.0217,-0.0078 a 1.1908421,1.1908421 0 0 0 -0.02946,-0.0098 1.1908421,1.1908421 0 0 0 -0.02945,-0.0088 1.1908421,1.1908421 0 0 0 -0.02946,-0.0083 1.1908421,1.1908421 0 0 0 -0.02532,-0.0067 c -0.0014,-3.18e-4 -0.0028,-7.15e-4 -0.0041,-10e-4 a 1.1908421,1.1908421 0 0 0 -0.02997,-0.0062 1.1908421,1.1908421 0 0 0 -0.02997,-0.0057 1.1908421,1.1908421 0 0 0 -0.0031,-5.29e-4 c -0.0736,-0.01272 -0.149832,-0.01924 -0.225826,-0.0186 a 1.1908421,1.1908421 0 0 0 -10e-4,0 c -0.01853,1.7e-4 -0.03684,0.0011 -0.05529,0.0021 -0.01086,5.83e-4 -0.02175,0.0012 -0.03256,0.0021 a 1.1908421,1.1908421 0 0 0 -0.07338,0.0088 1.1908421,1.1908421 0 0 0 -0.08785,0.01654 1.1908421,1.1908421 0 0 0 -0.08578,0.02274 1.1908421,1.1908421 0 0 0 -0.08423,0.02946 1.1908421,1.1908421 0 0 0 -0.08165,0.03566 1.1908421,1.1908421 0 0 0 -0.06925,0.03617 c -0.0016,8.73e-4 -0.0031,0.0017 -0.0047,0.0026 a 1.1908421,1.1908421 0 0 0 -0.0047,0.0026 1.1908421,1.1908421 0 0 0 -0.0057,0.0036 1.1908421,1.1908421 0 0 0 -0.06666,0.04186 1.1908421,1.1908421 0 0 0 -0.0031,0.0021 1.1908421,1.1908421 0 0 0 -0.0021,0.0016 c -0.0015,0.0011 -0.0031,0.002 -0.0047,0.0031 a 1.1908421,1.1908421 0 0 0 -0.05013,0.03721 c -0.0024,0.0019 -0.0048,0.0038 -0.0072,0.0057 -0.0075,0.0059 -0.0149,0.01201 -0.02222,0.01809 -0.01107,0.0092 -0.02184,0.01885 -0.03256,0.02842 -0.0089,0.008 -0.0177,0.01556 -0.02636,0.02377 -0.0087,0.0082 -0.01743,0.01686 -0.02584,0.02532 -0.01681,0.01692 -0.03333,0.0343 -0.04909,0.05219 -0.110316,0.125255 -0.194292,0.273684 -0.243913,0.437183 l -0.02635,0.0863 a 1.1908421,1.1908421 0 0 1 0,5.29e-4 h -0.473356 -0.465605 -0.0083 l 0.01344,-0.08682 c 0.126347,-0.806477 0.739504,-1.487303 1.531689,-1.701188 0.180158,-0.04865 0.366482,-0.07329 0.553455,-0.0739 z m 1.197343,2.033468 h 0.927592 a 2.1170528,2.1170528 0 0 1 0.0021,0.09302 2.1170528,2.1170528 0 0 1 -2.117183,2.117184 2.1170528,2.1170528 0 0 1 -0.151412,-0.01033 c -0.03735,-0.0011 -0.07092,-0.0025 -0.09302,-0.0052 -0.0048,-5.82e-4 -0.0096,-0.0015 -0.01447,-0.0021 a 2.1170528,2.1170528 0 0 1 -0.03669,-0.0047 c -0.07459,-0.01078 -0.147924,-0.02574 -0.220142,-0.04392 a 2.1170528,2.1170528 0 0 1 -0.06304,-0.01654 c -0.07295,-0.02074 -0.144596,-0.04521 -0.214458,-0.07338 a 2.1170528,2.1170528 0 0 1 -0.03824,-0.01602 c -5.03e-4,-2.14e-4 -0.0011,-2.91e-4 -0.0016,-5.29e-4 -0.07085,-0.03027 -0.140211,-0.06456 -0.207223,-0.10232 a 2.1170528,2.1170528 0 0 1 -0.04289,-0.02481 c -0.06492,-0.03862 -0.127979,-0.08101 -0.188608,-0.126594 a 2.1170528,2.1170528 0 0 1 -0.03772,-0.02894 c -0.05858,-0.04615 -0.114595,-0.09573 -0.168465,-0.148312 -0.0019,-0.0019 -0.0038,-0.0038 -0.0057,-0.0057 a 2.1170528,2.1170528 0 0 1 -0.03152,-0.03152 c -0.246826,-0.25162 -0.415332,-0.534517 -0.516247,-0.86713 -0.03292,-0.108524 -0.07028,-0.284563 -0.07028,-0.331763 v -0.0279 h 0.471805 0.471289 l 0.01189,0.04909 c 0.05284,0.222029 0.208653,0.462414 0.397908,0.612882 0.212157,0.168678 0.435474,0.252399 0.697632,0.261999 0.263367,0.0096 0.493367,-0.05474 0.709517,-0.198437 0.09289,-0.06175 0.203862,-0.168071 0.286805,-0.273885 h -0.871782 v -0.79375 h 1.114144 a 1.1908421,1.1908421 0 0 1 0,-5.29e-4 z" />
  </g>
</svg>
