<?xml version="1.0" encoding="UTF-8" standalone="no"?>
<!-- Created with Inkscape (http://www.inkscape.org/) -->

<svg
   width="60"
   height="60"
   viewBox="0 0 15.875 15.875001"
   version="1.1"
   id="svg5"
   inkscape:version="1.1.2 (b8e25be833, 2022-02-05)"
   sodipodi:docname="TNG.svg"
   xmlns:inkscape="http://www.inkscape.org/namespaces/inkscape"
   xmlns:sodipodi="http://sodipodi.sourceforge.net/DTD/sodipodi-0.dtd"
   xmlns="http://www.w3.org/2000/svg"
   xmlns:svg="http://www.w3.org/2000/svg">
  <sodipodi:namedview
     id="namedview7"
     pagecolor="#ffffff"
     bordercolor="#666666"
     borderopacity="1.0"
     inkscape:pageshadow="2"
     inkscape:pageopacity="0.0"
     inkscape:pagecheckerboard="0"
     inkscape:document-units="mm"
     showgrid="false"
     units="px"
     width="120px"
     inkscape:zoom="5"
     inkscape:cx="25.8"
     inkscape:cy="65"
     inkscape:window-width="3840"
     inkscape:window-height="2120"
     inkscape:window-x="-12"
     inkscape:window-y="-12"
     inkscape:window-maximized="1"
     inkscape:current-layer="layer1"
     showguides="true"
     inkscape:guide-bbox="true"
     fit-margin-top="0"
     fit-margin-left="0"
     fit-margin-right="0"
     fit-margin-bottom="0">
    <sodipodi:guide
       position="-22.833575,107.23081"
       orientation="0,1"
       id="guide34315"
       inkscape:label=""
       inkscape:locked="false"
       inkscape:color="rgb(0,0,255)" />
    <sodipodi:guide
       position="-9.3430408,98.717371"
       orientation="0,-1"
       id="guide34397" />
    <sodipodi:guide
       position="-3.9324567,92.650301"
       orientation="0,-1"
       id="guide37219" />
  </sodipodi:namedview>
  <defs
     id="defs2" />
  <g
     inkscape:label="Layer 1"
     inkscape:groupmode="layer"
     id="layer1"
     transform="translate(-28.895894,-28.89901)">
    <rect
       style="fill:#ffffff;fill-opacity:0;stroke:#000000;stroke-width:0;paint-order:stroke fill markers;stop-color:#000000"
       id="rect1041"
       width="24.92445"
       height="22.700218"
       x="1.8971366"
       y="1.4392071"
       inkscape:export-filename="K:\Side Projects\Logo Design\Account-logo-project\Favicon\icon-512.png"
       inkscape:export-xdpi="96"
       inkscape:export-ydpi="96" />
    <path
       style="fill:#003453;fill-opacity:1;stroke:#fffff0;stroke-width:0;stroke-miterlimit:4;stroke-dasharray:none;stroke-opacity:1;paint-order:stroke fill markers;stop-color:#000000"
       d="m 30.057143,44.758788 c -0.442855,-0.05684 -0.822375,-0.32574 -1.022346,-0.724356 -0.04476,-0.08922 -0.08683,-0.211412 -0.112147,-0.325736 l -0.02111,-0.09534 v -6.774569 c 0,-6.494373 7e-4,-6.778003 0.01689,-6.857604 0.05529,-0.271753 0.17896,-0.505152 0.367298,-0.693192 0.181941,-0.181652 0.402696,-0.302047 0.664119,-0.362195 l 0.09326,-0.02146 3.693731,-0.0027 3.69373,-0.0027 v 4.29974 c 0,2.364847 -0.0016,4.299721 -0.0035,4.299721 -0.0019,0 -0.348232,-0.627397 -0.769518,-1.394214 L 35.891579,34.709968 H 35.491455 35.09133 v 5.029463 5.029462 l -2.48666,-0.0012 c -1.367663,-7e-4 -2.514029,-0.0047 -2.547481,-0.009 z m 2.582571,-7.508282 v -1.707678 h 0.664357 0.664356 v -0.416393 -0.416393 h -1.876106 -1.876107 v 0.416393 0.416393 h 0.664357 0.664357 v 1.707678 1.707677 h 0.547393 0.547393 z"
       id="path35491"
       inkscape:export-filename="K:\Side Projects\Logo Design\Account-logo-project\Favicon\icon-512.png"
       inkscape:export-xdpi="96.000023"
       inkscape:export-ydpi="96.000023" />
    <path
       style="fill:#003453;fill-opacity:1;stroke:#fffff0;stroke-width:0;stroke-miterlimit:4;stroke-dasharray:none;stroke-opacity:1;paint-order:stroke fill markers;stop-color:#000000"
       d="m 30.347214,44.754558 c -0.349172,-0.0058 -0.362983,-0.0067 -0.449142,-0.03021 -0.254218,-0.0694 -0.45836,-0.190473 -0.633926,-0.37598 -0.173148,-0.182956 -0.274556,-0.378083 -0.33927,-0.652811 l -0.01921,-0.08156 0.0029,-6.800619 0.0029,-6.800621 0.02013,-0.07486 c 0.07479,-0.278129 0.178543,-0.463025 0.362293,-0.645644 0.179758,-0.178652 0.362761,-0.282304 0.63189,-0.357901 l 0.08925,-0.02507 3.709233,-0.0029 3.709233,-0.0029 -0.0068,4.278616 c -0.0037,2.353239 -0.008,4.279865 -0.0096,4.281392 -0.0035,0.0035 -0.05255,-0.08497 -0.658175,-1.186174 -0.270301,-0.491484 -0.574856,-1.045193 -0.676788,-1.230464 l -0.185333,-0.336857 -0.402787,-0.0024 -0.402788,-0.0024 v 5.029562 5.029561 l -2.19191,-0.0019 c -1.20555,-0.0011 -2.354022,-0.0046 -2.55216,-0.0078 z m 2.2925,-7.499373 v -1.707679 h 0.664357 0.664356 v -0.421071 -0.421071 h -1.876106 -1.876107 v 0.421071 0.421071 h 0.664357 0.664357 v 1.707679 1.707677 h 0.547393 0.547393 z"
       id="path35828"
       inkscape:export-filename="K:\Side Projects\Logo Design\Account-logo-project\Favicon\icon-512.png"
       inkscape:export-xdpi="96.000023"
       inkscape:export-ydpi="96.000023" />
    <path
       style="fill:#003453;fill-opacity:1;stroke:none;stroke-width:0;stroke-miterlimit:4;stroke-dasharray:none;stroke-opacity:1;paint-order:stroke fill markers;stop-color:#000000"
       d="m 35.886764,40.471876 1.29e-4,-4.30212 0.09579,0.174208 c 0.05268,0.09582 0.398958,0.726292 0.769501,1.401059 l 0.673713,1.226851 0.400019,1.29e-4 0.400017,1.29e-4 v -5.034163 -5.034251 l 2.711232,0.0027 c 2.553225,0.0025 2.715184,0.0037 2.779054,0.01921 0.12294,0.02992 0.211404,0.06226 0.325177,0.118864 0.392214,0.195133 0.66617,0.587575 0.715455,1.024887 0.0077,0.06816 0.0097,1.896561 0.0076,6.825556 l -0.0029,6.732462 -0.0198,0.08421 c -0.06343,0.269762 -0.167423,0.464831 -0.347141,0.651201 -0.197281,0.204583 -0.426182,0.32718 -0.727573,0.389686 -0.06889,0.01428 -0.38222,0.01576 -3.927659,0.01851 l -3.852803,0.003 z m 5.838601,-1.541295 c 0.381081,-0.06568 0.744668,-0.232126 1.030862,-0.471924 0.09316,-0.07806 0.279269,-0.268727 0.279269,-0.286112 0,-0.01121 -0.662009,-0.6755 -0.666688,-0.668982 -0.08466,0.117942 -0.211711,0.243843 -0.316094,0.313236 -0.21615,0.143697 -0.446352,0.208072 -0.709719,0.19847 -0.262158,-0.0096 -0.485093,-0.09333 -0.69725,-0.262008 C 40.45649,37.602793 40.300376,37.36259 40.247536,37.14056 l -0.0117,-0.04913 h -0.471601 -0.471604 v 0.0276 c 0,0.0472 0.03725,0.223362 0.07017,0.331886 0.105933,0.349152 0.286047,0.643528 0.55338,0.904442 0.3345,0.326465 0.764137,0.531155 1.233839,0.587831 0.112044,0.01352 0.469135,0.0057 0.575333,-0.01261 z m -1.465664,-2.440343 c 0.113419,-0.373712 0.406725,-0.669001 0.782382,-0.787671 0.238209,-0.07525 0.536149,-0.06647 0.76593,0.02257 0.225003,0.08719 0.394854,0.22035 0.560631,0.43953 0.0049,0.0064 0.666852,-0.657661 0.666852,-0.668982 0,-0.01751 -0.186451,-0.208348 -0.279269,-0.28584 -0.265435,-0.221605 -0.605489,-0.385678 -0.93716,-0.452173 -0.32809,-0.06578 -0.667968,-0.05493 -0.988248,0.03155 -0.792185,0.213885 -1.404921,0.894547 -1.531268,1.701024 l -0.01356,0.08655 h 0.473721 0.473722 z"
       id="path35789"
       inkscape:export-filename="K:\Side Projects\Logo Design\Account-logo-project\Favicon\icon-512.png"
       inkscape:export-xdpi="96.000023"
       inkscape:export-ydpi="96.000023" />
    <path
       d="M 33.960536,35.536602 H 32.63827 v 3.415146 H 31.546333 V 35.536602 H 30.224065 V 34.71765 h 3.736471 z"
       id="path36373"
       style="font-weight:bold;font-size:11.6452px;line-height:1.25;-inkscape-font-specification:'sans-serif, Bold';fill:#ffffff;stroke-width:0" />
    <path
       id="path36639"
       style="fill:#ffffff;fill-opacity:1;stroke:none;stroke-width:0;stroke-miterlimit:4;stroke-dasharray:none;stroke-opacity:1;paint-order:stroke fill markers;stop-color:#000000"
       d="m 41.394556,34.724628 a 2.1170528,2.1170528 0 0 0 -2.100254,1.852422 h 0.939131 a 1.1908421,1.1908421 0 0 1 0,-2.58e-4 1.1908421,1.1908421 0 0 1 0.023,-0.08606 1.1908421,1.1908421 0 0 1 0.02946,-0.08399 1.1908421,1.1908421 0 0 1 0.03566,-0.08166 1.1908421,1.1908421 0 0 1 0.04161,-0.07882 1.1908421,1.1908421 0 0 1 0.04729,-0.07546 1.1908421,1.1908421 0 0 1 0.05298,-0.07158 1.1908421,1.1908421 0 0 1 0.05815,-0.06745 1.1908421,1.1908421 0 0 1 0.0628,-0.06306 1.1908421,1.1908421 0 0 1 0.06771,-0.05815 1.1908421,1.1908421 0 0 1 0.07158,-0.05272 1.1908421,1.1908421 0 0 1 0.07546,-0.04755 1.1908421,1.1908421 0 0 1 0.07856,-0.04161 1.1908421,1.1908421 0 0 1 0.08166,-0.03541 1.1908421,1.1908421 0 0 1 0.08399,-0.02946 1.1908421,1.1908421 0 0 1 0.08606,-0.023 1.1908421,1.1908421 0 0 1 0.08761,-0.01654 1.1908421,1.1908421 0 0 1 0.08838,-0.01008 1.1908421,1.1908421 0 0 1 0.08916,-0.0033 1.1908421,1.1908421 0 0 1 0.0305,5e-4 1.1908421,1.1908421 0 0 1 0.03075,0.0011 1.1908421,1.1908421 0 0 1 0.0305,0.0021 1.1908421,1.1908421 0 0 1 0.0305,0.0026 1.1908421,1.1908421 0 0 1 0.0305,0.0036 1.1908421,1.1908421 0 0 1 0.0305,0.0044 1.1908421,1.1908421 0 0 1 0.03024,0.0052 1.1908421,1.1908421 0 0 1 0.02998,0.0057 1.1908421,1.1908421 0 0 1 0.02998,0.0067 1.1908421,1.1908421 0 0 1 0.02972,0.0075 1.1908421,1.1908421 0 0 1 0.02946,0.0083 1.1908421,1.1908421 0 0 1 0.02946,0.0088 1.1908421,1.1908421 0 0 1 0.0292,0.0098 1.1908421,1.1908421 0 0 1 0.02869,0.01034 1.1908421,1.1908421 0 0 1 0.02869,0.01137 1.1908421,1.1908421 0 0 1 0.02817,0.01189 1.1908421,1.1908421 0 0 1 0.02791,0.01266 1.1908421,1.1908421 0 0 1 0.02765,0.01318 1.1908421,1.1908421 0 0 1 0.02714,0.01421 1.1908421,1.1908421 0 0 1 0.02687,0.01473 1.1908421,1.1908421 0 0 1 0.02662,0.01551 1.1908421,1.1908421 0 0 1 0.02611,0.01602 1.1908421,1.1908421 0 0 1 0.02558,0.0168 1.1908421,1.1908421 0 0 1 0.02532,0.01731 1.1908421,1.1908421 0 0 1 0.02455,0.01809 1.1908421,1.1908421 0 0 1 0.0243,0.01886 1.1908421,1.1908421 0 0 1 0.02377,0.01938 1.1908421,1.1908421 0 0 1 0.02352,0.0199 1.1908421,1.1908421 0 0 1 0.02274,0.02042 1.1908421,1.1908421 0 0 1 0.02222,0.02119 1.1908421,1.1908421 0 0 1 0.02171,0.02171 1.1908421,1.1908421 0 0 1 0.0067,0.0072 l 0.531072,-0.771672 a 2.1170528,2.1170528 0 0 0 -1.390607,-0.52152 z m 1.187225,2.024018 a 1.1908421,1.1908421 0 0 1 0,2.58e-4 1.1908421,1.1908421 0 0 1 0,2.58e-4 h -1.11383 v 0.793895 h 0.887963 a 1.1908421,1.1908421 0 0 1 -0.0305,0.04109 1.1908421,1.1908421 0 0 1 -0.05789,0.06745 1.1908421,1.1908421 0 0 1 -0.06306,0.06306 1.1908421,1.1908421 0 0 1 -0.06745,0.05815 1.1908421,1.1908421 0 0 1 -0.07184,0.05272 1.1908421,1.1908421 0 0 1 -0.0752,0.04755 1.1908421,1.1908421 0 0 1 -0.07882,0.04161 1.1908421,1.1908421 0 0 1 -0.08166,0.03566 1.1908421,1.1908421 0 0 1 -0.08399,0.02921 1.1908421,1.1908421 0 0 1 -0.08606,0.02326 1.1908421,1.1908421 0 0 1 -0.08761,0.01654 1.1908421,1.1908421 0 0 1 -0.08838,0.0098 1.1908421,1.1908421 0 0 1 -0.0889,0.0034 1.1908421,1.1908421 0 0 1 -0.08916,-0.0034 1.1908421,1.1908421 0 0 1 -0.08838,-0.0098 1.1908421,1.1908421 0 0 1 -0.08761,-0.01654 1.1908421,1.1908421 0 0 1 -0.08606,-0.02326 1.1908421,1.1908421 0 0 1 -0.08399,-0.02921 1.1908421,1.1908421 0 0 1 -0.08166,-0.03566 1.1908421,1.1908421 0 0 1 -0.07856,-0.04161 1.1908421,1.1908421 0 0 1 -0.07546,-0.04755 1.1908421,1.1908421 0 0 1 -0.07158,-0.05272 1.1908421,1.1908421 0 0 1 -0.06771,-0.05815 1.1908421,1.1908421 0 0 1 -0.0628,-0.06306 1.1908421,1.1908421 0 0 1 -0.05815,-0.06745 1.1908421,1.1908421 0 0 1 -0.05298,-0.07158 1.1908421,1.1908421 0 0 1 -0.04729,-0.07546 1.1908421,1.1908421 0 0 1 -0.04161,-0.07882 1.1908421,1.1908421 0 0 1 -0.03566,-0.08141 1.1908421,1.1908421 0 0 1 -0.02946,-0.08425 1.1908421,1.1908421 0 0 1 -0.023,-0.08606 1.1908421,1.1908421 0 0 1 0,-2.58e-4 h -0.939132 a 2.1170528,2.1170528 0 0 0 2.100254,1.852422 2.1170528,2.1170528 0 0 0 2.117054,-2.117053 2.1170528,2.1170528 0 0 0 -0.0024,-0.09304 z"
       inkscape:export-filename="K:\Side Projects\Logo Design\Account-logo-project\Favicon\icon-512.png"
       inkscape:export-xdpi="96.000023"
       inkscape:export-ydpi="96.000023" />
    <path
       style="fill:#7ba03b;fill-opacity:1;stroke:none;stroke-width:0;stroke-miterlimit:4;stroke-dasharray:none;stroke-opacity:1;paint-order:stroke fill markers;stop-color:#000000"
       d="m 30.347214,44.75481 c -0.35102,-0.0055 -0.362527,-0.0063 -0.449142,-0.03022 -0.25583,-0.07059 -0.458531,-0.190894 -0.633926,-0.376222 -0.173148,-0.182956 -0.274556,-0.378082 -0.33927,-0.652809 l -0.01921,-0.08156 0.0028,-6.8053 0.0028,-6.8053 0.03051,-0.105862 c 0.142059,-0.492949 0.478263,-0.822378 0.983147,-0.963333 l 0.09004,-0.02514 3.707767,-0.0028 3.707765,-0.0028 -0.0014,2.393292 c -8e-4,1.31631 -0.0039,3.243856 -0.007,4.283434 l -0.0056,1.890141 -0.178614,-0.32282 C 37.139675,36.97003 36.79712,36.347897 36.476677,35.765064 L 35.894056,34.705368 H 35.492668 35.09128 v 5.029463 5.029461 l -2.19191,-0.0019 c -1.205551,-0.0011 -2.354023,-0.0045 -2.55216,-0.0076 z m 2.2925,-7.499625 v -1.707679 h 0.664357 0.664356 v -0.421071 -0.421071 h -1.876106 -1.876107 v 0.421071 0.421071 h 0.664357 0.664357 v 1.707679 1.707677 h 0.547393 0.547393 z"
       id="path35867"
       inkscape:export-filename="K:\Side Projects\Logo Design\Account-logo-project\Favicon\icon-512.png"
       inkscape:export-xdpi="96.000023"
       inkscape:export-ydpi="96.000023" />
  </g>
</svg>
